<svg xmlns="http://www.w3.org/2000/svg" xmlns:xlink="http://www.w3.org/1999/xlink" xmlns:lucid="lucid" width="2261" height="404.46"><g transform="translate(1700.500686835469 160.5)" lucid:page-tab-id="0_0"><path d="M-847 5.22c-10.16 0-18.4 8.25-18.4 18.42v55.28c0 10.17 8.24 18.42 18.4 18.42h126c10.18 0 18.43-8.25 18.43-18.42V23.64c0-10.17-8.25-18.42-18.42-18.42z" stroke="#333" fill="#e08fff"/><use xlink:href="#a" transform="matrix(1,0,0,1,-857.4131952263004,13.219785157638142) translate(38.55729166666666 30.772916666666667)"/><use xlink:href="#b" transform="matrix(1,0,0,1,-857.4131952263004,13.219785157638142) translate(22.796874999999993 61.74791666666667)"/><path d="M-701.57 51.28h53.36" stroke="#333" fill="none"/><path d="M-701.55 51.76h-.52v-.95h.52z" stroke="#333" stroke-width=".05" fill="#333"/><path d="M-633.44 51.28l-14.27 4.64v-9.27z" stroke="#333" fill="#333"/><path d="M-612.9 5.22c-10.17 0-18.42 8.25-18.42 18.42v55.28c0 10.17 8.25 18.42 18.42 18.42h126c10.18 0 18.42-8.25 18.42-18.42V23.64c0-10.17-8.24-18.42-18.42-18.42z" stroke="#333" fill="#e08fff"/><use xlink:href="#c" transform="matrix(1,0,0,1,-623.3217743751409,13.219785157638142) translate(20.562499999999993 30.772916666666667)"/><use xlink:href="#d" transform="matrix(1,0,0,1,-623.3217743751409,13.219785157638142) translate(96.98958333333334 30.772916666666667)"/><use xlink:href="#e" transform="matrix(1,0,0,1,-623.3217743751409,13.219785157638142) translate(28.104166666666657 61.74791666666667)"/><path d="M-1659.3 51.28c0 12.72-9.1 23.03-20.34 23.03-11.25 0-20.36-10.3-20.36-23.02 0-12.72 9.1-23.03 20.36-23.03 11.24 0 20.35 10.3 20.35 23.03z" stroke="#666"/><path d="M-1586.14 51.76h-72.15v-.95h72.16zm256.02 0h-99.7v-.95h99.7z" stroke="#333" stroke-width=".05" fill="#333"/><path d="M-1658.28 51.76h-.56l.05-.46v-.5h.52z" fill="#333"/><path stroke="#333" stroke-width=".05" fill="#333"/><path d="M-1315.36 51.28l-14.26 4.64v-9.27z" fill="#333"/><path d="M-1313.82 51.28l-16.28 5.3v-10.6zm-15.33 3.98l12.26-3.98-12.25-3.98z" stroke="#333" stroke-width=".05" fill="#333"/><use xlink:href="#f" transform="matrix(1,0,0,1,-1586.136909719356,27.618932884910876) translate(0.0049999999999954525 17.22222222222222)"/><use xlink:href="#g" transform="matrix(1,0,0,1,-1586.136909719356,27.618932884910876) translate(5.0049999999999955 17.22222222222222)"/><use xlink:href="#h" transform="matrix(1,0,0,1,-1586.136909719356,27.618932884910876) translate(49.67513888888889 17.22222222222222)"/><use xlink:href="#i" transform="matrix(1,0,0,1,-1586.136909719356,27.618932884910876) translate(102.739375 17.22222222222222)"/><use xlink:href="#j" transform="matrix(1,0,0,1,-1586.136909719356,27.618932884910876) translate(9.840071019314237 43.034722222222214)"/><use xlink:href="#k" transform="matrix(1,0,0,1,-1586.136909719356,27.618932884910876) translate(81.5154165828993 43.034722222222214)"/><path d="M-1294.82 5.22c-10.17 0-18.42 8.25-18.42 18.42v55.28c0 10.17 8.25 18.42 18.42 18.42h126c10.18 0 18.43-8.25 18.43-18.42V23.64c0-10.17-8.24-18.42-18.42-18.42z" stroke="#333" fill="#e08fff"/><use xlink:href="#l" transform="matrix(1,0,0,1,-1305.2402612024318,13.219785157638142) translate(16.734374999999993 30.772916666666667)"/><use xlink:href="#m" transform="matrix(1,0,0,1,-1305.2402612024318,13.219785157638142) translate(33.19791666666666 61.74791666666667)"/><path d="M-1330.12 51.76h-17.6l-.88.07-.85.2-.8.33-.74.45-.65.58-.56.65-.46.74-.33.8-.2.85-.07.88v126.14l.07.9.2.83.34.8.45.74.55.67.66.56.75.45.8.34.85.2.88.07h56.33v.94h-56.36l-1-.08-.98-.24-.94-.4-.87-.52-.77-.66-.66-.77-.53-.87-.4-.94-.24-1-.07-.98V57.26l.06-1 .24-.98.4-.94.52-.87.66-.77.77-.66.87-.53.94-.38 1-.24.98-.08h17.64zm215.24-.88l1 .24.93.4.86.52.78.66.67.77.53.87.38.94.24 1 .08.98v126.22l-.08 1-.23.98-.4.94-.52.87-.66.77-.8.66-.85.53-.94.4-.98.23-1 .08h-56.36V189h56.33l.87-.08.84-.2.8-.34.75-.45.66-.56.58-.66.45-.73.33-.8.2-.84.07-.9V57.3l-.07-.88-.2-.85-.33-.8-.45-.74-.57-.66-.65-.56-.74-.44-.8-.33-.83-.2-.88-.07h-33.5v-.95h33.53z" stroke="#3a414a" stroke-width=".05" fill="#3a414a"/><path d="M-1149.38 51.76h-.5v-.95h.5z" fill="#3a414a"/><path stroke="#3a414a" stroke-width=".05" fill="#3a414a"/><path d="M-1315.36 51.28l-14.26 4.64v-9.27z" fill="#3a414a"/><path d="M-1313.82 51.28l-16.28 5.3v-10.6zm-15.33 3.98l12.26-3.98-12.25-3.98z" stroke="#3a414a" stroke-width=".05" fill="#3a414a"/><use xlink:href="#n" transform="matrix(1,0,0,1,-1291.3894238274318,152.43740471256237) translate(16.137324218750003 17.4375)"/><use xlink:href="#o" transform="matrix(1,0,0,1,-1291.3894238274318,152.43740471256237) translate(61.36583984375 17.4375)"/><use xlink:href="#p" transform="matrix(1,0,0,1,-1291.3894238274318,152.43740471256237) translate(0.005000000000002558 43.572656249999994)"/><use xlink:href="#q" transform="matrix(1,0,0,1,-1291.3894238274318,152.43740471256237) translate(70.405390625 43.572656249999994)"/><use xlink:href="#r" transform="matrix(1,0,0,1,-1291.3894238274318,152.43740471256237) translate(3.0372265625000026 69.70781249999999)"/><use xlink:href="#s" transform="matrix(1,0,0,1,-1291.3894238274318,152.43740471256237) translate(39.8633984375 69.70781249999999)"/><use xlink:href="#t" transform="matrix(1,0,0,1,-1291.3894238274318,152.43740471256237) translate(64.499140625 69.70781249999999)"/><path d="M-1048.36 51.76h-101.03v-.95h101.04zm166.06 0h-51.44v-.95h51.44z" stroke="#3a414a" stroke-width=".05" fill="#3a414a"/><path d="M-1149.38 51.76h-.5v-.95h.5z" fill="#3a414a"/><path stroke="#3a414a" stroke-width=".05" fill="#3a414a"/><path d="M-867.53 51.28l-14.27 4.64v-9.27z" fill="#3a414a"/><path d="M-866 51.28l-16.27 5.3v-10.6zm-15.32 3.98l12.25-3.98-12.25-3.98z" stroke="#3a414a" stroke-width=".05" fill="#3a414a"/><use xlink:href="#u" transform="matrix(1,0,0,1,-1048.36209247008,27.618932884910876) translate(0 17.22222222222222)"/><use xlink:href="#v" transform="matrix(1,0,0,1,-1048.36209247008,27.618932884910876) translate(45.00868055555556 17.22222222222222)"/><use xlink:href="#w" transform="matrix(1,0,0,1,-1048.36209247008,27.618932884910876) translate(20.508472222222224 43.034722222222214)"/><use xlink:href="#x" transform="matrix(1,0,0,1,-1048.36209247008,27.618932884910876) translate(52.930347222222224 43.034722222222214)"/><path d="M-329.8-113.46h-35.06l-1.82.14-1.76.42-1.67.7-1.55.94-1.37 1.17-1.18 1.4-.94 1.53-.7 1.67-.42 1.76-.14 1.82v127.4h-.95v-127.44l.15-1.93.46-1.9.75-1.8 1.03-1.67 1.27-1.5 1.5-1.26 1.66-1.03 1.8-.75 1.9-.46 1.95-.15h35.1zm160.2 0H-203v-.95h33.4z" stroke="#333" stroke-width=".05" fill="#333"/><path d="M-376.4 26.52l-.48-.54-.47.54v-1.05h.95z" fill="#333"/><path stroke="#333" stroke-width=".05" fill="#333"/><path d="M-154.84-113.94l-14.27 4.64v-9.28z" fill="#333"/><path d="M-153.3-113.94l-16.28 5.3v-10.6zm-15.33 3.98l12.25-3.98-12.25-3.98z" stroke="#333" stroke-width=".05" fill="#333"/><use xlink:href="#n" transform="matrix(1,0,0,1,-329.7887679621138,-137.89662050189395) translate(0.005000000000002558 17.4375)"/><use xlink:href="#y" transform="matrix(1,0,0,1,-329.7887679621138,-137.89662050189395) translate(45.233515625 17.4375)"/><use xlink:href="#z" transform="matrix(1,0,0,1,-329.7887679621138,-137.89662050189395) translate(33.1837109375 43.572656249999994)"/><use xlink:href="#A" transform="matrix(1,0,0,1,-329.7887679621138,-137.89662050189395) translate(65.272578125 43.572656249999994)"/><path d="M-134.3-160c-10.18 0-18.42 8.25-18.42 18.42v55.28c0 10.17 8.24 18.42 18.42 18.42h126c10.17 0 18.42-8.25 18.42-18.42v-55.28C10.12-151.75 1.87-160-8.3-160z" stroke="#333" fill="#e08fff"/><use xlink:href="#B" transform="matrix(1,0,0,1,-144.72486238335566,-152) translate(13.994791666666657 46.26041666666667)"/><path d="M28.55 5.22c-10.18 0-18.43 8.25-18.43 18.42v55.28c0 10.17 8.25 18.42 18.43 18.42h126c10.17 0 18.42-8.25 18.42-18.42V23.64c0-10.17-8.25-18.42-18.43-18.42z" stroke="#333" fill="#e08fff"/><use xlink:href="#C" transform="matrix(1,0,0,1,18.12134342614675,13.219785157638142) translate(25.953125 46.26041666666667)"/><path d="M-376.88 28.25l20.36 23.03-20.36 23.03-20.35-23.02z" stroke="#00c2a8" stroke-width="3" fill="#fff"/><path d="M-354.02 51.28H-6.76" stroke="#333" fill="none"/><path d="M-354 51.76h-.94l.42-.48-.42-.48h.94z" stroke="#333" stroke-width=".05" fill="#333"/><path d="M8 51.28l-14.26 4.64v-9.27z" stroke="#333" fill="#333"/><path d="M356.17 28.25l20.35 23.03-20.35 23.03L335.8 51.3zM91.54-136.97l20.36 23.03L91.54-90.9 71.2-113.95z" stroke="#00c2a8" stroke-width="3" fill="#fff"/><path d="M560 51.28c0 12.72-9.1 23.03-20.36 23.03-11.24 0-20.35-10.3-20.35-23.02 0-12.72 9.1-23.03 20.34-23.03 11.25 0 20.36 10.3 20.36 23.03z" stroke="#333" fill="#fff"/><path d="M551.86 51.28c0 7.63-5.47 13.82-12.22 13.82-6.74 0-12.2-6.2-12.2-13.82 0-7.63 5.46-13.82 12.2-13.82 6.75 0 12.22 6.2 12.22 13.82z" stroke="#333"/><path d="M-376.4 207.98l.14 1.82.43 1.76.7 1.67.93 1.54 1.18 1.38 1.37 1.17 1.54.95 1.66.7 1.76.4 1.82.16h268.68v.94h-268.7l-1.95-.15-1.9-.45-1.8-.75-1.68-1.03-1.5-1.28-1.27-1.5-1.02-1.66-.74-1.8-.46-1.9-.15-1.94V77.08h.95zm733.04.04l-.15 1.93-.46 1.9-.75 1.8-1.04 1.68-1.27 1.5-1.5 1.26-1.67 1.02-1.8.75-1.9.45-1.94.16H75.46v-.95h268.68l1.82-.15 1.76-.42 1.67-.7 1.54-.94 1.38-1.17 1.17-1.38.94-1.54.7-1.67.4-1.76.15-1.82V92.96h.94z" stroke="#333" stroke-width=".05" fill="#333"/><path d="M-376.88 76.58l.48-.54v1.05h-.95v-1.06z" fill="#333"/><path stroke="#333" stroke-width=".05" fill="#333"/><path d="M360.8 92.46h-9.27l4.64-14.27z" fill="#333"/><path d="M361.46 92.94h-10.58l5.3-16.28zm-9.27-.95l7.95-.02-3.98-12.25z" stroke="#333" stroke-width=".05" fill="#333"/><g><use xlink:href="#n" transform="matrix(1,0,0,1,-96.1777188257272,196.0427734375) translate(4.9840039062499955 17.4375)"/><use xlink:href="#D" transform="matrix(1,0,0,1,-96.1777188257272,196.0427734375) translate(50.212519531249995 17.4375)"/><use xlink:href="#E" transform="matrix(1,0,0,1,-96.1777188257272,196.0427734375) translate(106.26037109375 17.4375)"/><use xlink:href="#F" transform="matrix(1,0,0,1,-96.1777188257272,196.0427734375) translate(138.34923828125 17.4375)"/><use xlink:href="#G" transform="matrix(1,0,0,1,-96.1777188257272,196.0427734375) translate(0.0049999999999954525 43.572656249999994)"/><use xlink:href="#H" transform="matrix(1,0,0,1,-96.1777188257272,196.0427734375) translate(20.061640624999995 43.572656249999994)"/><use xlink:href="#I" transform="matrix(1,0,0,1,-96.1777188257272,196.0427734375) translate(49.628046874999995 43.572656249999994)"/><use xlink:href="#J" transform="matrix(1,0,0,1,-96.1777188257272,196.0427734375) translate(113.471796875 43.572656249999994)"/></g><path d="M379.03 51.28H502.4" stroke="#333" fill="none"/><path d="M379.04 51.76h-.93l.43-.48-.42-.48h.94z" stroke="#333" stroke-width=".05" fill="#333"/><path d="M517.17 51.28l-14.27 4.64v-9.27z" stroke="#333" fill="#333"/><path d="M11.12-113.94H52.8" stroke="#333" fill="none"/><path d="M11.13-113.46h-.5v-.95h.5z" stroke="#333" stroke-width=".05" fill="#333"/><path d="M67.57-113.94L53.3-109.3v-9.28z" stroke="#333" fill="#333"/><path d="M91.54-88.14v76.48" stroke="#333" fill="none"/><path d="M91.54-88.64l.48-.54v1.05h-.95v-1.05z" stroke="#333" stroke-width=".05" fill="#333"/><path d="M91.54 3.1L86.9-11.16h9.28z" stroke="#333" fill="#333"/><path d="M114.4-113.94h229.77a12 12 0 0 1 12 12V9.6" stroke="#333" fill="none"/><path d="M114.42-113.46h-.94l.42-.48-.42-.47h.94z" stroke="#333" stroke-width=".05" fill="#333"/><path d="M356.17 24.37l-4.64-14.27h9.28z" stroke="#333" fill="#333"/><path d="M173.97 51.28h143.46" stroke="#333" fill="none"/><path d="M173.98 51.76h-.5v-.95h.5z" stroke="#333" stroke-width=".05" fill="#333"/><path d="M332.2 51.28l-14.27 4.64v-9.27z" stroke="#333" fill="#333"/><path d="M-467.48 51.28h51.86" stroke="#3a414a" fill="none"/><path d="M-467.46 51.76h-.52v-.95h.52z" stroke="#3a414a" stroke-width=".05" fill="#3a414a"/><path d="M-400.85 51.28l-14.27 4.64v-9.27z" stroke="#3a414a" fill="#3a414a"/><defs><path d="M657 26c-323 0-524-166-541-416h195c15 169 171 246 346 246 202 0 356-106 356-265 5-203-294-238-475-293-239-73-380-191-380-389 0-252 224-419 512-419 294 0 499 171 508 396H992c-17-145-151-228-328-228-193 0-321 102-321 242 0 156 175 211 284 241l149 41c160 44 422 134 422 412 0 244-197 432-541 432" id="K"/><path d="M52 0l541-1490h220L1361 0h-200l-149-416H398L254 0H52zm404-582h497c-103-290-145-390-251-756-108 377-145 460-246 756" id="L"/><path d="M600 0L52-1490h200c166 485 304 806 458 1336 156-533 285-846 449-1336h202L819 0H600" id="M"/><path d="M180 0v-1490h908v168H370v486h669v168H370v500h727V0H180" id="N"/><path d="M645 0H180v-1490h484c435 0 692 280 692 742 0 466-257 748-711 748zM370-168h263c363 0 539-218 539-580 0-358-176-574-521-574H370v1154" id="O"/><g id="a"><use transform="matrix(0.010416666666666668,0,0,0.010416666666666668,0,0)" xlink:href="#K"/><use transform="matrix(0.010416666666666668,0,0,0.010416666666666668,13.687500000000002,0)" xlink:href="#L"/><use transform="matrix(0.010416666666666668,0,0,0.010416666666666668,26.94791666666667,0)" xlink:href="#M"/><use transform="matrix(0.010416666666666668,0,0,0.010416666666666668,41.66666666666667,0)" xlink:href="#N"/><use transform="matrix(0.010416666666666668,0,0,0.010416666666666668,54.48958333333334,0)" xlink:href="#O"/></g><path d="M218-607c0-325 108-727 258-974h175c-155 315-250 682-250 974 0 265 78 531 250 886H476C306-10 218-315 218-607" id="P"/><path d="M180 0v-1490h510c348 0 508 209 508 474 0 266-160 477-507 477H370V0H180zm190-706h312c236 0 327-133 327-310 0-176-91-307-329-307H370v617" id="Q"/><path d="M180 0v-1490h510c348 0 508 194 508 460 0 198-88 351-276 417L1256 0h-220L726-579c-117 2-238 0-356 1V0H180zm190-747h312c235 0 327-108 327-283 0-177-92-293-329-293H370v576" id="R"/><path d="M370-1490V0H180v-1490h190" id="S"/><path d="M98-1322v-168h1126v168H757V0H567v-1322H98" id="T"/><path d="M96 279C273-86 346-350 346-607c0-292-95-659-250-974h175c150 246 258 650 258 974 0 297-91 602-258 886H96" id="U"/><g id="b"><use transform="matrix(0.010416666666666668,0,0,0.010416666666666668,0,0)" xlink:href="#P"/><use transform="matrix(0.010416666666666668,0,0,0.010416666666666668,7.781250000000001,0)" xlink:href="#Q"/><use transform="matrix(0.010416666666666668,0,0,0.010416666666666668,21.406250000000004,0)" xlink:href="#R"/><use transform="matrix(0.010416666666666668,0,0,0.010416666666666668,35.13541666666667,0)" xlink:href="#S"/><use transform="matrix(0.010416666666666668,0,0,0.010416666666666668,40.864583333333336,0)" xlink:href="#M"/><use transform="matrix(0.010416666666666668,0,0,0.010416666666666668,54.125,0)" xlink:href="#L"/><use transform="matrix(0.010416666666666668,0,0,0.010416666666666668,67.03125,0)" xlink:href="#T"/><use transform="matrix(0.010416666666666668,0,0,0.010416666666666668,80.80208333333334,0)" xlink:href="#N"/><use transform="matrix(0.010416666666666668,0,0,0.010416666666666668,93.62500000000001,0)" xlink:href="#U"/></g><path d="M600 0v-610L52-1490h220l295 481c50 82 90 150 130 243 40-96 80-164 128-243l294-481h219L790-610V0H600" id="V"/><g id="c"><use transform="matrix(0.010416666666666668,0,0,0.010416666666666668,0,0)" xlink:href="#R"/><use transform="matrix(0.010416666666666668,0,0,0.010416666666666668,13.729166666666668,0)" xlink:href="#N"/><use transform="matrix(0.010416666666666668,0,0,0.010416666666666668,26.552083333333336,0)" xlink:href="#L"/><use transform="matrix(0.010416666666666668,0,0,0.010416666666666668,41.270833333333336,0)" xlink:href="#O"/><use transform="matrix(0.010416666666666668,0,0,0.010416666666666668,55.94791666666667,0)" xlink:href="#V"/></g><path d="M784 20c-382 0-662-292-662-764 0-473 280-766 662-766s660 293 660 766c0 472-278 764-660 764zm0-176c266 0 475-207 475-588 0-383-209-590-475-590-268 0-477 208-477 590 0 380 209 588 477 588" id="W"/><g id="d"><use transform="matrix(0.010416666666666668,0,0,0.010416666666666668,0,0)" xlink:href="#T"/><use transform="matrix(0.010416666666666668,0,0,0.010416666666666668,13.13541666666667,0)" xlink:href="#W"/></g><path d="M763 24c-353 0-583-224-583-531v-983h190v968c0 214 149 370 393 370 243 0 391-156 391-370v-968h190v983c0 307-230 531-581 531" id="X"/><path d="M180 0v-1490h528c311 0 458 177 458 395 0 191-114 278-244 313v14c139 9 302 137 302 371 0 225-148 397-499 397H180zm190-168h350c232 0 321-102 321-231 0-149-120-277-311-277H370v508zm0-668h328c160 0 286-101 286-255 0-129-87-231-280-231H370v486" id="Y"/><path d="M180 0v-1490h190v1322h690V0H180" id="Z"/><path d="M180 0v-1490h190v644h782v-644h190V0h-190v-678H370V0H180" id="aa"/><g id="e"><use transform="matrix(0.010416666666666668,0,0,0.010416666666666668,0,0)" xlink:href="#Q"/><use transform="matrix(0.010416666666666668,0,0,0.010416666666666668,13.625000000000002,0)" xlink:href="#X"/><use transform="matrix(0.010416666666666668,0,0,0.010416666666666668,29.500000000000004,0)" xlink:href="#Y"/><use transform="matrix(0.010416666666666668,0,0,0.010416666666666668,43.458333333333336,0)" xlink:href="#Z"/><use transform="matrix(0.010416666666666668,0,0,0.010416666666666668,55.52083333333334,0)" xlink:href="#S"/><use transform="matrix(0.010416666666666668,0,0,0.010416666666666668,61.25000000000001,0)" xlink:href="#K"/><use transform="matrix(0.010416666666666668,0,0,0.010416666666666668,74.93750000000001,0)" xlink:href="#aa"/></g><path d="M538 24C308 24 148-78 108-271l171-41c32 123 123 178 257 178 156 0 256-77 256-169 0-77-54-128-164-154l-186-44c-203-48-300-148-300-305 0-192 176-326 414-326 230 0 351 112 402 269l-163 42c-31-80-94-158-238-158-133 0-233 69-233 162 0 83 57 129 188 160l169 40c203 48 298 149 298 302 0 196-179 339-441 339" id="ab"/><path d="M628 24c-324 0-524-230-524-574 0-343 198-582 503-582 237 0 487 146 487 559v75H286c9 234 145 362 343 362 132 0 231-58 273-172l174 48C1024-91 857 24 628 24zM287-650h624c-17-190-120-322-304-322-192 0-309 151-320 322" id="ac"/><path d="M158 0v-1118h174v172h12c41-113 157-188 290-188 26 0 70 2 91 3v181c-11-2-60-10-108-10-161 0-279 109-279 260V0H158" id="ad"/><g id="g"><use transform="matrix(0.008680555555555556,0,0,0.008680555555555556,0,0)" xlink:href="#X"/><use transform="matrix(0.008680555555555556,0,0,0.008680555555555556,13.229166666666668,0)" xlink:href="#ab"/><use transform="matrix(0.008680555555555556,0,0,0.008680555555555556,22.612847222222225,0)" xlink:href="#ac"/><use transform="matrix(0.008680555555555556,0,0,0.008680555555555556,32.97743055555556,0)" xlink:href="#ad"/></g><path d="M613 24c-304 0-509-231-509-576 0-350 205-580 509-580 216 0 392 114 453 309l-173 49c-33-115-133-197-280-197-223 0-326 196-326 419 0 220 103 415 326 415 150 0 252-85 285-206l172 49C1010-95 832 24 613 24" id="ae"/><path d="M338-1490V0H158v-1490h180" id="af"/><path d="M158 0v-1118h180V0H158zm91-1301c-68 0-125-53-125-119s57-119 125-119c69 0 126 53 126 119s-57 119-126 119" id="ag"/><path d="M158 0v-1490h180v865h22l478-493h223L593-638 1096 0H865L456-523 338-412V0H158" id="ah"/><g id="h"><use transform="matrix(0.008680555555555556,0,0,0.008680555555555556,0,0)" xlink:href="#ae"/><use transform="matrix(0.008680555555555556,0,0,0.008680555555555556,10.15625,0)" xlink:href="#af"/><use transform="matrix(0.008680555555555556,0,0,0.008680555555555556,14.461805555555555,0)" xlink:href="#ag"/><use transform="matrix(0.008680555555555556,0,0,0.008680555555555556,18.76736111111111,0)" xlink:href="#ae"/><use transform="matrix(0.008680555555555556,0,0,0.008680555555555556,28.92361111111111,0)" xlink:href="#ah"/><use transform="matrix(0.008680555555555556,0,0,0.008680555555555556,38.68055555555556,0)" xlink:href="#ab"/></g><path d="M677 24c-213 0-288-135-325-197h-20V0H158v-1490h180v551h14c37-59 106-193 324-193 279 0 474 222 474 576 0 356-194 580-473 580zm-27-161c209 0 317-186 317-421 0-232-105-413-317-413-206 0-314 166-314 413 0 249 111 421 314 421" id="ai"/><path d="M537 14c-226 0-379-139-379-422v-710h180v695c0 172 97 275 253 275 160 0 281-109 281-300v-670h181V0H879v-209C806-46 684 14 537 14" id="aj"/><path d="M598-1118v154H368v674c0 100 37 144 132 144 23 0 62-6 92-12L629-6c-37 13-88 20-134 20-193 0-307-107-307-290v-688H20v-154h168v-266h180v266h230" id="ak"/><path d="M613 24c-304 0-509-231-509-576 0-350 205-580 509-580 305 0 511 230 511 580 0 345-206 576-511 576zm0-161c226 0 329-195 329-415 0-222-103-419-329-419-223 0-326 196-326 419 0 220 103 415 326 415" id="al"/><path d="M338-670V0H158v-1118h173l1 207c72-158 192-221 342-221 226 0 378 139 378 422V0H872v-695c0-172-96-275-252-275-161 0-282 109-282 300" id="am"/><g id="i"><use transform="matrix(0.008680555555555556,0,0,0.008680555555555556,0,0)" xlink:href="#ai"/><use transform="matrix(0.008680555555555556,0,0,0.008680555555555556,10.885416666666668,0)" xlink:href="#aj"/><use transform="matrix(0.008680555555555556,0,0,0.008680555555555556,21.397569444444446,0)" xlink:href="#ak"/><use transform="matrix(0.008680555555555556,0,0,0.008680555555555556,26.77951388888889,0)" xlink:href="#ak"/><use transform="matrix(0.008680555555555556,0,0,0.008680555555555556,32.421875,0)" xlink:href="#al"/><use transform="matrix(0.008680555555555556,0,0,0.008680555555555556,43.08159722222222,0)" xlink:href="#am"/></g><path d="M232-923l-22-567h194l-22 567H232" id="an"/><path d="M180 0v-1490h270l367 940c28 72 75 218 110 339 35-117 81-264 110-339l362-940h271V0h-187c2-448-5-837 7-1287-157 497-311 829-483 1287H842C666-458 514-784 354-1284c12 438 5 843 7 1284H180" id="ao"/><path d="M471 26C259 26 90-98 90-318c0-256 228-303 435-329 202-27 287-16 287-108 0-139-79-219-234-219-161 0-248 86-283 164l-173-57c86-203 278-265 451-265 150 0 419 46 419 395V0H815v-152h-12C765-73 660 26 471 26zm31-159c199 0 310-134 310-271v-155c-30 35-226 55-295 64-131 17-246 59-246 186 0 116 97 176 231 176" id="ap"/><g id="j"><use transform="matrix(0.008680555555555556,0,0,0.008680555555555556,0,0)" xlink:href="#an"/><use transform="matrix(0.008680555338541666,0,0,0.008680555338541666,5.329861111111112,0)" xlink:href="#ao"/><use transform="matrix(0.008680555338541666,0,0,0.008680555338541666,21.388888487413194,0)" xlink:href="#ap"/><use transform="matrix(0.008680555338541666,0,0,0.008680555338541666,31.37152712673611,0)" xlink:href="#am"/><use transform="matrix(0.008680555338541666,0,0,0.008680555338541666,41.874999086371524,0)" xlink:href="#aj"/><use transform="matrix(0.008680555338541666,0,0,0.008680555338541666,52.38715160134549,0)" xlink:href="#ap"/><use transform="matrix(0.008680555338541666,0,0,0.008680555338541666,62.3697902406684,0)" xlink:href="#af"/></g><path d="M577 24c-279 0-473-224-473-580 0-354 195-576 474-576 218 0 287 134 324 193h14v-551h180V0H922v-173h-20C865-111 790 24 577 24zm27-161c203 0 314-172 314-421 0-247-108-413-314-413-212 0-317 181-317 413 0 235 108 421 317 421" id="aq"/><g id="k"><use transform="matrix(0.008680555338541666,0,0,0.008680555338541666,0,0)" xlink:href="#R"/><use transform="matrix(0.008680555338541666,0,0,0.008680555338541666,11.180555276041666,0)" xlink:href="#ac"/><use transform="matrix(0.008680555338541666,0,0,0.008680555338541666,21.545138350260416,0)" xlink:href="#ae"/><use transform="matrix(0.008680555338541666,0,0,0.008680555338541666,31.701388096354165,0)" xlink:href="#al"/><use transform="matrix(0.008680555338541666,0,0,0.008680555338541666,42.36111005208333,0)" xlink:href="#ad"/><use transform="matrix(0.008680555338541666,0,0,0.008680555338541666,48.75867933658854,0)" xlink:href="#aq"/><use transform="matrix(0.008680555555555556,0,0,0.008680555555555556,59.64409573111979,0)" xlink:href="#an"/></g><path d="M180 0v-1490h224l606 953c40 63 108 177 176 312-27-437-7-821-13-1265h190V0h-226C860-448 622-778 356-1262c27 476 11 792 15 1262H180" id="ar"/><path d="M789 20c-398 0-667-293-667-764 0-473 273-766 655-766 315 0 558 198 612 487h-196c-61-191-204-311-415-311-262 0-471 207-471 590 0 380 208 588 482 588 249 0 420-165 425-427H828v-166h572v163c0 370-256 606-611 606" id="as"/><g id="l"><use transform="matrix(0.010416666666666668,0,0,0.010416666666666668,0,0)" xlink:href="#S"/><use transform="matrix(0.010416666666666668,0,0,0.010416666666666668,5.729166666666667,0)" xlink:href="#ar"/><use transform="matrix(0.010416666666666668,0,0,0.010416666666666668,21.802083333333336,0)" xlink:href="#K"/><use transform="matrix(0.010416666666666668,0,0,0.010416666666666668,35.489583333333336,0)" xlink:href="#N"/><use transform="matrix(0.010416666666666668,0,0,0.010416666666666668,48.31249999999999,0)" xlink:href="#R"/><use transform="matrix(0.010416666666666668,0,0,0.010416666666666668,62.04166666666667,0)" xlink:href="#T"/><use transform="matrix(0.010416666666666668,0,0,0.010416666666666668,75.8125,0)" xlink:href="#S"/><use transform="matrix(0.010416666666666668,0,0,0.010416666666666668,81.54166666666667,0)" xlink:href="#ar"/><use transform="matrix(0.010416666666666668,0,0,0.010416666666666668,97.61458333333334,0)" xlink:href="#as"/></g><g id="m"><use transform="matrix(0.010416666666666668,0,0,0.010416666666666668,0,0)" xlink:href="#K"/><use transform="matrix(0.010416666666666668,0,0,0.010416666666666668,13.687500000000002,0)" xlink:href="#T"/><use transform="matrix(0.010416666666666668,0,0,0.010416666666666668,27.458333333333336,0)" xlink:href="#R"/><use transform="matrix(0.010416666666666668,0,0,0.010416666666666668,41.1875,0)" xlink:href="#N"/><use transform="matrix(0.010416666666666668,0,0,0.010416666666666668,54.01041666666667,0)" xlink:href="#N"/><use transform="matrix(0.010416666666666668,0,0,0.010416666666666668,66.83333333333334,0)" xlink:href="#T"/></g><g id="n"><use transform="matrix(0.0087890625,0,0,0.0087890625,0,0)" xlink:href="#X"/><use transform="matrix(0.0087890625,0,0,0.0087890625,13.39453125,0)" xlink:href="#ab"/><use transform="matrix(0.0087890625,0,0,0.0087890625,22.8955078125,0)" xlink:href="#ac"/><use transform="matrix(0.0087890625,0,0,0.0087890625,33.3896484375,0)" xlink:href="#ad"/></g><g id="o"><use transform="matrix(0.0087890625,0,0,0.0087890625,0,0)" xlink:href="#ap"/><use transform="matrix(0.0087890625,0,0,0.0087890625,10.107421875,0)" xlink:href="#aq"/><use transform="matrix(0.0087890625,0,0,0.0087890625,21.12890625,0)" xlink:href="#aq"/><use transform="matrix(0.0087890625,0,0,0.0087890625,32.150390625,0)" xlink:href="#ab"/></g><path d="M338-670V0H158v-1490h180v566c73-149 190-208 336-208 226 0 379 139 379 422V0H872v-695c0-172-96-275-252-275-161 0-282 109-282 300" id="at"/><g id="p"><use transform="matrix(0.0087890625,0,0,0.0087890625,0,0)" xlink:href="#ap"/><use transform="matrix(0.0087890625,0,0,0.0087890625,10.107421875,0)" xlink:href="#am"/><use transform="matrix(0.0087890625,0,0,0.0087890625,20.7421875,0)" xlink:href="#al"/><use transform="matrix(0.0087890625,0,0,0.0087890625,31.53515625,0)" xlink:href="#ak"/><use transform="matrix(0.0087890625,0,0,0.0087890625,37.423828125,0)" xlink:href="#at"/><use transform="matrix(0.0087890625,0,0,0.0087890625,48.0673828125,0)" xlink:href="#ac"/><use transform="matrix(0.0087890625,0,0,0.0087890625,58.5615234375,0)" xlink:href="#ad"/></g><g id="q"><use transform="matrix(0.0087890625,0,0,0.0087890625,0,0)" xlink:href="#ab"/><use transform="matrix(0.0087890625,0,0,0.0087890625,9.5009765625,0)" xlink:href="#ak"/><use transform="matrix(0.0087890625,0,0,0.0087890625,15.3896484375,0)" xlink:href="#ad"/><use transform="matrix(0.0087890625,0,0,0.0087890625,21.8671875,0)" xlink:href="#ac"/><use transform="matrix(0.0087890625,0,0,0.0087890625,32.361328125,0)" xlink:href="#ac"/><use transform="matrix(0.0087890625,0,0,0.0087890625,42.85546875,0)" xlink:href="#ak"/></g><g id="r"><use transform="matrix(0.0087890625,0,0,0.0087890625,0,0)" xlink:href="#ap"/><use transform="matrix(0.0087890625,0,0,0.0087890625,10.107421875,0)" xlink:href="#am"/><use transform="matrix(0.0087890625,0,0,0.0087890625,20.7421875,0)" xlink:href="#aq"/></g><g id="s"><use transform="matrix(0.0087890625,0,0,0.0087890625,0,0)" xlink:href="#ag"/><use transform="matrix(0.0087890625,0,0,0.0087890625,4.359375,0)" xlink:href="#ak"/><use transform="matrix(0.0087890625,0,0,0.0087890625,10.072265625,0)" xlink:href="#ab"/></g><g id="t"><use transform="matrix(0.0087890625,0,0,0.0087890625,0,0)" xlink:href="#ab"/><use transform="matrix(0.0087890625,0,0,0.0087890625,9.5009765625,0)" xlink:href="#ak"/><use transform="matrix(0.0087890625,0,0,0.0087890625,15.4775390625,0)" xlink:href="#ap"/><use transform="matrix(0.0087890625,0,0,0.0087890625,25.5849609375,0)" xlink:href="#ak"/><use transform="matrix(0.0087890625,0,0,0.0087890625,31.4736328125,0)" xlink:href="#aj"/><use transform="matrix(0.0087890625,0,0,0.0087890625,42.1171875,0)" xlink:href="#ab"/></g><path fill="#333" d="M750 21c-371 0-615-218-615-544v-967h305v942c0 174 123 299 310 299s309-125 309-299v-942h306v967c0 326-247 544-615 544" id="au"/><path fill="#333" d="M572 22C302 22 117-98 78-306l279-48c29 105 101 156 224 156 114 0 185-48 185-115 0-118-228-130-337-155-215-49-322-150-322-317 0-215 187-347 470-347 265 0 424 116 466 298l-266 47c-24-76-87-130-196-130-98 0-174 46-174 113 0 56 38 95 144 117l201 40c216 44 320 143 320 302 0 220-207 367-500 367" id="av"/><path fill="#333" d="M633 22C291 22 81-200 81-553c0-345 210-579 537-579 292 0 525 185 525 567v84H378c7 183 109 277 260 277 105 0 184-46 216-132l272 51C1071-99 893 22 633 22zM380-669h474c-15-146-94-237-233-237-143 0-229 99-241 237" id="aw"/><path fill="#333" d="M128 0v-1118h290v195h12c54-169 184-238 367-200v268c-27-8-86-15-130-15-138 0-239 95-239 234V0H128" id="ax"/><g id="u"><use transform="matrix(0.008680555555555556,0,0,0.008680555555555556,0,0)" xlink:href="#au"/><use transform="matrix(0.008680555555555556,0,0,0.008680555555555556,13.012152777777779,0)" xlink:href="#av"/><use transform="matrix(0.008680555555555556,0,0,0.008680555555555556,22.96875,0)" xlink:href="#aw"/><use transform="matrix(0.008680555555555556,0,0,0.008680555555555556,33.55902777777778,0)" xlink:href="#ax"/></g><path fill="#333" d="M513 14c-232 0-385-159-385-421v-711h300v659c0 139 76 222 202 222 127 0 217-86 217-234v-647h301V0H864l-4-232C797-74 683 14 513 14" id="ay"/><path fill="#333" d="M754 19C571 19 479-89 437-179h-14V0H128v-1490h300v560h9c41-89 129-202 319-202 248 0 453 193 453 575 0 372-197 576-455 576zm-92-241c156 0 240-139 240-336 0-196-83-334-240-334-154 0-241 131-241 334 0 202 88 336 241 336" id="az"/><path fill="#333" d="M128 0v-1118h278l12 217c60-163 185-234 319-234 143 0 236 81 288 251 63-172 205-251 359-251 205 0 357 138 357 381V0h-301v-697c0-126-76-187-177-187-114 0-184 79-184 196V0H789v-705c0-109-72-179-174-179-106 0-187 74-187 208V0H128" id="aA"/><path fill="#333" d="M128 0v-1118h300V0H128zm150-1264c-91 0-165-68-165-154 0-85 74-154 165-154 90 0 165 69 165 154 0 86-75 154-165 154" id="aB"/><path fill="#333" d="M683-1118v229H474v562c0 71 29 104 102 104 23 0 73-7 95-13l43 225C647 9 580 16 520 16 296 16 174-96 174-301v-588H20v-229h154v-266h300v266h209" id="aC"/><g id="v"><use transform="matrix(0.008680555555555556,0,0,0.008680555555555556,0,0)" xlink:href="#av"/><use transform="matrix(0.008680555555555556,0,0,0.008680555555555556,9.956597222222223,0)" xlink:href="#ay"/><use transform="matrix(0.008680555555555556,0,0,0.008680555555555556,21.024305555555557,0)" xlink:href="#az"/><use transform="matrix(0.008680555555555556,0,0,0.008680555555555556,32.23090277777778,0)" xlink:href="#aA"/><use transform="matrix(0.008680555555555556,0,0,0.008680555555555556,48.454861111111114,0)" xlink:href="#aB"/><use transform="matrix(0.008680555555555556,0,0,0.008680555555555556,53.27256944444445,0)" xlink:href="#aC"/><use transform="matrix(0.008680555555555556,0,0,0.008680555555555556,59.65277777777778,0)" xlink:href="#av"/></g><path fill="#333" d="M428-647V0H128v-1490h294v586c65-146 175-228 341-228 232 0 385 159 385 421V0H847v-659c0-139-76-222-202-222-128 0-217 86-217 234" id="aD"/><g id="w"><use transform="matrix(0.008680555555555556,0,0,0.008680555555555556,0,0)" xlink:href="#aC"/><use transform="matrix(0.008680555555555556,0,0,0.008680555555555556,6.553819444444445,0)" xlink:href="#aD"/><use transform="matrix(0.008680555555555556,0,0,0.008680555555555556,17.62152777777778,0)" xlink:href="#aw"/></g><path fill="#333" d="M750-1118v229H516V0H217v-889H20v-229h197v-86c0-238 156-356 363-356 94 0 178 20 215 31l-54 226c-25-7-61-15-100-15-123-3-131 84-125 200h234" id="aE"/><path fill="#333" d="M628 22C291 22 81-210 81-554c0-346 210-578 547-578 336 0 547 232 547 578 0 344-211 576-547 576zm0-236c160 0 242-146 242-341 0-197-82-341-242-341S387-753 387-555c0 195 81 341 241 341" id="aF"/><g id="x"><use transform="matrix(0.008680555555555556,0,0,0.008680555555555556,0,0)" xlink:href="#aE"/><use transform="matrix(0.008680555555555556,0,0,0.008680555555555556,6.692708333333333,0)" xlink:href="#aF"/><use transform="matrix(0.008680555555555556,0,0,0.008680555555555556,17.59548611111111,0)" xlink:href="#ax"/><use transform="matrix(0.008680555555555556,0,0,0.008680555555555556,24.96527777777778,0)" xlink:href="#aA"/></g><path d="M158 418v-1536h174v179h20c37-59 106-193 324-193 279 0 474 222 474 576 0 356-194 580-473 580-213 0-288-135-325-197h-14v591H158zm492-555c209 0 317-186 317-421 0-232-105-413-317-413-206 0-314 166-314 413 0 249 111 421 314 421" id="aG"/><g id="y"><use transform="matrix(0.0087890625,0,0,0.0087890625,0,0)" xlink:href="#aG"/><use transform="matrix(0.0087890625,0,0,0.0087890625,11.021484375,0)" xlink:href="#aj"/><use transform="matrix(0.0087890625,0,0,0.0087890625,21.6650390625,0)" xlink:href="#ai"/><use transform="matrix(0.0087890625,0,0,0.0087890625,32.6865234375,0)" xlink:href="#af"/><use transform="matrix(0.0087890625,0,0,0.0087890625,37.0458984375,0)" xlink:href="#ag"/><use transform="matrix(0.0087890625,0,0,0.0087890625,41.4052734375,0)" xlink:href="#ab"/><use transform="matrix(0.0087890625,0,0,0.0087890625,50.90625,0)" xlink:href="#at"/><use transform="matrix(0.0087890625,0,0,0.0087890625,61.5498046875,0)" xlink:href="#ac"/><use transform="matrix(0.0087890625,0,0,0.0087890625,72.0439453125,0)" xlink:href="#ab"/></g><g id="z"><use transform="matrix(0.0087890625,0,0,0.0087890625,0,0)" xlink:href="#ak"/><use transform="matrix(0.0087890625,0,0,0.0087890625,5.888671875,0)" xlink:href="#at"/><use transform="matrix(0.0087890625,0,0,0.0087890625,16.5322265625,0)" xlink:href="#ac"/></g><g id="A"><use transform="matrix(0.0087890625,0,0,0.0087890625,0,0)" xlink:href="#ak"/><use transform="matrix(0.0087890625,0,0,0.0087890625,5.888671875,0)" xlink:href="#ad"/><use transform="matrix(0.0087890625,0,0,0.0087890625,12.9462890625,0)" xlink:href="#ag"/><use transform="matrix(0.0087890625,0,0,0.0087890625,17.3056640625,0)" xlink:href="#aG"/></g><g id="B"><use transform="matrix(0.010416666666666668,0,0,0.010416666666666668,0,0)" xlink:href="#Q"/><use transform="matrix(0.010416666666666668,0,0,0.010416666666666668,13.625000000000002,0)" xlink:href="#X"/><use transform="matrix(0.010416666666666668,0,0,0.010416666666666668,29.500000000000004,0)" xlink:href="#Y"/><use transform="matrix(0.010416666666666668,0,0,0.010416666666666668,43.458333333333336,0)" xlink:href="#Z"/><use transform="matrix(0.010416666666666668,0,0,0.010416666666666668,55.52083333333334,0)" xlink:href="#S"/><use transform="matrix(0.010416666666666668,0,0,0.010416666666666668,61.25000000000001,0)" xlink:href="#K"/><use transform="matrix(0.010416666666666668,0,0,0.010416666666666668,74.93750000000001,0)" xlink:href="#aa"/><use transform="matrix(0.010416666666666668,0,0,0.010416666666666668,90.79166666666667,0)" xlink:href="#N"/><use transform="matrix(0.010416666666666668,0,0,0.010416666666666668,103.61458333333336,0)" xlink:href="#O"/></g><g id="C"><use transform="matrix(0.010416666666666668,0,0,0.010416666666666668,0,0)" xlink:href="#O"/><use transform="matrix(0.010416666666666668,0,0,0.010416666666666668,15.395833333333336,0)" xlink:href="#N"/><use transform="matrix(0.010416666666666668,0,0,0.010416666666666668,28.218750000000004,0)" xlink:href="#Z"/><use transform="matrix(0.010416666666666668,0,0,0.010416666666666668,40.28125000000001,0)" xlink:href="#N"/><use transform="matrix(0.010416666666666668,0,0,0.010416666666666668,53.10416666666667,0)" xlink:href="#T"/><use transform="matrix(0.010416666666666668,0,0,0.010416666666666668,66.875,0)" xlink:href="#N"/><use transform="matrix(0.010416666666666668,0,0,0.010416666666666668,79.69791666666667,0)" xlink:href="#O"/></g><g id="D"><use transform="matrix(0.0087890625,0,0,0.0087890625,0,0)" xlink:href="#ah"/><use transform="matrix(0.0087890625,0,0,0.0087890625,9.474609375,0)" xlink:href="#ac"/><use transform="matrix(0.0087890625,0,0,0.0087890625,19.96875,0)" xlink:href="#ac"/><use transform="matrix(0.0087890625,0,0,0.0087890625,30.462890625,0)" xlink:href="#aG"/><use transform="matrix(0.0087890625,0,0,0.0087890625,41.484375,0)" xlink:href="#ab"/></g><g id="E"><use transform="matrix(0.0087890625,0,0,0.0087890625,0,0)" xlink:href="#ak"/><use transform="matrix(0.0087890625,0,0,0.0087890625,5.888671875,0)" xlink:href="#at"/><use transform="matrix(0.0087890625,0,0,0.0087890625,16.5322265625,0)" xlink:href="#ac"/></g><g id="F"><use transform="matrix(0.0087890625,0,0,0.0087890625,0,0)" xlink:href="#ak"/><use transform="matrix(0.0087890625,0,0,0.0087890625,5.888671875,0)" xlink:href="#ad"/><use transform="matrix(0.0087890625,0,0,0.0087890625,12.9462890625,0)" xlink:href="#ag"/><use transform="matrix(0.0087890625,0,0,0.0087890625,17.3056640625,0)" xlink:href="#aG"/></g><g id="G"><use transform="matrix(0.0087890625,0,0,0.0087890625,0,0)" xlink:href="#ag"/><use transform="matrix(0.0087890625,0,0,0.0087890625,4.359375,0)" xlink:href="#am"/></g><g id="H"><use transform="matrix(0.0087890625,0,0,0.0087890625,0,0)" xlink:href="#at"/><use transform="matrix(0.0087890625,0,0,0.0087890625,10.6435546875,0)" xlink:href="#ag"/><use transform="matrix(0.0087890625,0,0,0.0087890625,15.0029296875,0)" xlink:href="#ab"/></g><path d="M481 0L54-1118h197c107 314 236 620 325 951 87-331 217-637 324-951h197L670 0H481" id="aH"/><g id="I"><use transform="matrix(0.0087890625,0,0,0.0087890625,0,0)" xlink:href="#aG"/><use transform="matrix(0.0087890625,0,0,0.0087890625,11.021484375,0)" xlink:href="#ad"/><use transform="matrix(0.0087890625,0,0,0.0087890625,18.0791015625,0)" xlink:href="#ag"/><use transform="matrix(0.0087890625,0,0,0.0087890625,22.4384765625,0)" xlink:href="#aH"/><use transform="matrix(0.0087890625,0,0,0.0087890625,32.466796875,0)" xlink:href="#ap"/><use transform="matrix(0.0087890625,0,0,0.0087890625,42.57421875,0)" xlink:href="#ak"/><use transform="matrix(0.0087890625,0,0,0.0087890625,48.287109375,0)" xlink:href="#ac"/></g><path d="M140 405l46-156c120 36 205 19 263-150l32-93L54-1118h197c107 313 237 620 324 950 87-331 219-637 326-950h196L606 167c-68 178-176 259-334 259-64 0-113-12-132-21" id="aI"/><g id="J"><use transform="matrix(0.0087890625,0,0,0.0087890625,0,0)" xlink:href="#at"/><use transform="matrix(0.0087890625,0,0,0.0087890625,10.6435546875,0)" xlink:href="#ag"/><use transform="matrix(0.0087890625,0,0,0.0087890625,15.0029296875,0)" xlink:href="#ab"/><use transform="matrix(0.0087890625,0,0,0.0087890625,24.50390625,0)" xlink:href="#ak"/><use transform="matrix(0.0087890625,0,0,0.0087890625,30.216796875,0)" xlink:href="#al"/><use transform="matrix(0.0087890625,0,0,0.0087890625,41.009765625,0)" xlink:href="#ad"/><use transform="matrix(0.0087890625,0,0,0.0087890625,48.0673828125,0)" xlink:href="#aI"/></g></defs></g></svg>