<svg xmlns="http://www.w3.org/2000/svg" xmlns:xlink="http://www.w3.org/1999/xlink" xmlns:lucid="lucid" width="1301" height="1161"><g transform="translate(-739.4988990149158 440.5)" lucid:page-tab-id="0_0"><path d="M780 116.92c0 11.04-8.95 20-20 20s-20-8.96-20-20c0-11.05 8.95-20 20-20s20 8.95 20 20z" stroke="#666"/><path d="M1056 76.92c-8.84 0-16 7.16-16 16v48c0 8.83 7.16 16 16 16h128c8.84 0 16-7.17 16-16v-48c0-8.84-7.16-16-16-16z" stroke="#333" fill="#e08fff"/><use xlink:href="#a" transform="matrix(1,0,0,1,1048,84.9173378100636) translate(25.000488281250004 41.11790364583334)"/><path d="M1520 116.92l20-20 20 20-20 20z" stroke="#00c2a8" stroke-width="3" fill="#fff"/><path d="M1720 284c0 8.84 7.16 16 16 16h48c8.84 0 16-7.16 16-16V156c0-8.84-7.16-16-16-16h-48c-8.84 0-16 7.16-16 16z" stroke="#333" fill="#e08fff"/><use xlink:href="#b" transform="matrix(6.123233995736766e-17,-1,1,6.123233995736766e-17,1728,292) translate(11.715494791666682 41.11790364583334)"/><path d="M1720 60.92c0 8.83 7.16 16 16 16h48c8.84 0 16-7.17 16-16v-128c0-8.84-7.16-16-16-16h-48c-8.84 0-16 7.16-16 16z" stroke="#333" fill="#e08fff"/><use xlink:href="#c" transform="matrix(6.123233995736766e-17,-1,1,6.123233995736766e-17,1728,68.9173378100636) translate(29.198404947916668 41.11790364583334)"/><path d="M1540.47 212.88l.15 1.82.42 1.76.7 1.67.94 1.54 1.17 1.38 1.38 1.17 1.54.94 1.67.7 1.76.42 1.82.14h55.88v.95h-55.92l-1.93-.15-1.9-.46-1.8-.75-1.68-1-1.5-1.28-1.26-1.5-1.02-1.66-.75-1.8-.45-1.9-.15-1.95v-73.36h.94z" stroke="#333" stroke-width=".05" fill="#333"/><path d="M1540.47 139.55h-.94v-1l.47.5.47-.5z" fill="#333"/><path stroke="#333" stroke-width=".05" fill="#333"/><path d="M1717.88 224.9l-14.26 4.63v-9.27z" fill="#333"/><path d="M1719.42 224.9l-15.96 5.18V219.7zm-15.33 3.98l12.25-3.98-12.26-4z" stroke="#333" stroke-width=".05" fill="#333"/><use xlink:href="#d" transform="matrix(1,0,0,1,1607.9051647772576,200.9394836434796) translate(19.380488281250003 17.4375)"/><use xlink:href="#e" transform="matrix(1,0,0,1,1607.9051647772576,200.9394836434796) translate(0.005000000000002558 43.572656249999994)"/><path d="M1540 94.3V8.92a12 12 0 0 1 12-12h151.12" stroke="#333" fill="none"/><path d="M1540.47 95.27l-.47-.47-.47.47v-1h.94z" stroke="#333" stroke-width=".05" fill="#333"/><path d="M1717.88-3.08l-14.26 4.63v-9.27z" stroke="#333" fill="#333"/><use xlink:href="#d" transform="matrix(1,0,0,1,1577.5834629061546,0.9173378100636) translate(14.014765625000003 17.4375)"/><use xlink:href="#f" transform="matrix(1,0,0,1,1577.5834629061546,0.9173378100636) translate(0.005000000000002558 43.572656249999994)"/><path d="M1801 220h88a12 12 0 0 0 12-12v-52.58" stroke="#333" fill="none"/><path d="M1801 220.47h-.5v-.94h.5z" stroke="#333" stroke-width=".05" fill="#333"/><path d="M1901 140.66l4.64 14.26h-9.28z" stroke="#333" fill="#333"/><path d="M1801-3.08h88a12 12 0 0 1 12 12v69.5" stroke="#333" fill="none"/><path d="M1801-2.6h-.5v-.96h.5z" stroke="#333" stroke-width=".05" fill="#333"/><path d="M1901 93.18l-4.63-14.27h9.27z" stroke="#333" fill="#333"/><path d="M1901 96.92l20 20-20 20-20-20z" stroke="#00c2a8" stroke-width="3" fill="#fff"/><path d="M1901-400h82.12" stroke="#333" fill="none"/><path d="M1901-399.52h-.5v-.96h.5z" stroke="#333" stroke-width=".05" fill="#333"/><path d="M1997.88-400l-14.27 4.63.02-9.26z" stroke="#333" fill="#333"/><path d="M2040-400c0 11.05-8.95 20-20 20s-20-8.95-20-20 8.95-20 20-20 20 8.95 20 20z" stroke="#333" fill="#fff"/><path d="M2032-400c0 6.63-5.37 12-12 12s-12-5.37-12-12 5.37-12 12-12 12 5.37 12 12z" stroke="#333"/><path d="M1720-136c0 8.84 7.16 16 16 16h48c8.84 0 16-7.16 16-16v-128c0-8.84-7.16-16-16-16h-48c-8.84 0-16 7.16-16 16z" stroke="#333" fill="#e08fff"/><use xlink:href="#g" transform="matrix(6.123233995736766e-17,-1,1,6.123233995736766e-17,1728,-128) translate(25.747233072916668 41.11790364583334)"/><path d="M1720 524c0 8.84 7.16 16 16 16h48c8.84 0 16-7.16 16-16V376c0-8.84-7.16-16-16-16h-48c-8.84 0-16 7.16-16 16z" stroke="#333" fill="#e08fff"/><use xlink:href="#h" transform="matrix(6.123233995736766e-17,-1,1,6.123233995736766e-17,1728,532) translate(31.281901041666668 28.614973958333334)"/><use xlink:href="#i" transform="matrix(6.123233995736766e-17,-1,1,6.123233995736766e-17,1728,532) translate(5.635253906250011 53.62083333333334)"/><path d="M1540.47 437.98l.15 1.82.42 1.76.7 1.67.94 1.54 1.17 1.38 1.38 1.17 1.54.95 1.67.7 1.76.4 1.82.15h16.3v.96h-16.34l-1.93-.16-1.9-.45-1.8-.75-1.68-1.03-1.5-1.28-1.26-1.5-1.02-1.66-.75-1.8-.45-1.9-.15-1.94V139.54h.94zm162.65 11.54v.96h-17.44v-.96z" stroke="#333" stroke-width=".05" fill="#333"/><path d="M1540.47 139.55h-.94v-1l.47.5.47-.5z" fill="#333"/><path stroke="#333" stroke-width=".05" fill="#333"/><path d="M1717.88 450l-14.26 4.63v-9.26z" fill="#333"/><path d="M1719.42 450l-16.28 5.3v-10.6zm-15.33 3.98l12.25-3.98-12.26-3.98z" stroke="#333" stroke-width=".05" fill="#333"/><use xlink:href="#d" transform="matrix(1,0,0,1,1568.32421875,412.9751953125) translate(30.278925781250003 17.4375)"/><use xlink:href="#j" transform="matrix(1,0,0,1,1568.32421875,412.9751953125) translate(19.754023437500003 43.572656249999994)"/><use xlink:href="#k" transform="matrix(1,0,0,1,1568.32421875,412.9751953125) translate(0.005000000000002558 69.70781249999999)"/><path d="M1585.6-199.53h-33.58l-1.82.15-1.76.42-1.67.7-1.54.94-1.38 1.17-1.17 1.38-.95 1.54-.7 1.67-.4 1.76-.16 1.82V94.3h-.94v-282.32l.15-1.93.45-1.9.75-1.8 1.03-1.68 1.28-1.5 1.5-1.26 1.66-1.02 1.8-.75 1.9-.45 1.94-.16h33.62zm117.52 0h-38.72v-.94h38.72z" stroke="#333" stroke-width=".05" fill="#333"/><path d="M1540.47 95.27l-.47-.47-.47.47v-1h.94z" fill="#333"/><path stroke="#333" stroke-width=".05" fill="#333"/><path d="M1717.88-200l-14.26 4.63v-9.26z" fill="#333"/><path d="M1719.42-200l-16.28 5.3v-10.6zm-15.33 3.98l12.25-3.98-12.26-3.98z" stroke="#333" stroke-width=".05" fill="#333"/><use xlink:href="#d" transform="matrix(1,0,0,1,1585.5986328125,-223.9572265625) translate(11.004511718750003 17.4375)"/><use xlink:href="#l" transform="matrix(1,0,0,1,1585.5986328125,-223.9572265625) translate(0.005000000000002558 43.572656249999994)"/><path d="M1801-200h88a12 12 0 0 1 12 12V78.4" stroke="#333" fill="none"/><path d="M1801-199.53h-.5v-.94h.5z" stroke="#333" stroke-width=".05" fill="#333"/><path d="M1901 93.18l-4.63-14.27h9.27z" stroke="#333" fill="#333"/><path d="M1801 450h88a12 12 0 0 0 12-12V155.42" stroke="#333" fill="none"/><path d="M1801 450.48h-.5v-.96h.5z" stroke="#333" stroke-width=".05" fill="#333"/><path d="M1901 140.66l4.64 14.26h-9.28z" stroke="#333" fill="#333"/><path d="M1736-440c-8.84 0-16 7.16-16 16v48c0 8.84 7.16 16 16 16h148c8.84 0 16-7.16 16-16v-48c0-8.84-7.16-16-16-16z" stroke="#333" fill="#e08fff"/><use xlink:href="#m" transform="matrix(1,0,0,1,1728,-432) translate(2.635416666666657 24.272916666666667)"/><use xlink:href="#n" transform="matrix(1,0,0,1,1728,-432) translate(39.36979166666666 55.24791666666667)"/><path d="M1824.78 680.48h-47.9v-.96h47.9zm164.67-563.9l1.9.47 1.8.75 1.68 1.02 1.5 1.28 1.26 1.48 1.02 1.67.75 1.8.45 1.92.15 1.93v539.12l-.15 1.93-.45 1.9-.75 1.8-1.03 1.68-1.28 1.5-1.5 1.26-1.66 1.02-1.8.75-1.9.45-1.94.15h-41.88v-.95h41.84l1.82-.14 1.76-.42 1.67-.7 1.54-.94 1.38-1.17 1.17-1.38.95-1.54.7-1.67.4-1.76.16-1.82V128.94l-.15-1.83-.42-1.74-.7-1.67-.94-1.56-1.17-1.37-1.38-1.17-1.54-.95-1.67-.7-1.76-.4-1.82-.16h-63.86v-.96h63.9z" stroke="#333" stroke-width=".05" fill="#333"/><path d="M1923.63 117.4h-.98l.47-.48-.47-.48h.98z" fill="#333"/><path stroke="#333" stroke-width=".05" fill="#333"/><path d="M1776.38 684.63l-14.26-4.63 14.26-4.63z" fill="#333"/><path d="M1776.86 685.3l-16.28-5.3 16.28-5.3zm-13.2-5.3l12.25 3.98v-7.96z" stroke="#333" stroke-width=".05" fill="#333"/><use xlink:href="#o" transform="matrix(1,0,0,1,1824.7818956155206,642.9751953125) translate(25.972285156250003 17.4375)"/><use xlink:href="#p" transform="matrix(1,0,0,1,1824.7818956155206,642.9751953125) translate(66.56896484375 17.4375)"/><use xlink:href="#q" transform="matrix(1,0,0,1,1824.7818956155206,642.9751953125) translate(4.518183593750003 43.572656249999994)"/><use xlink:href="#r" transform="matrix(1,0,0,1,1824.7818956155206,642.9751953125) translate(92.64611328125 43.572656249999994)"/><use xlink:href="#s" transform="matrix(1,0,0,1,1824.7818956155206,642.9751953125) translate(0.005000000000002558 69.70781249999999)"/><use xlink:href="#t" transform="matrix(1,0,0,1,1824.7818956155206,642.9751953125) translate(32.0938671875 69.70781249999999)"/><use xlink:href="#u" transform="matrix(1,0,0,1,1824.7818956155206,642.9751953125) translate(83.026484375 69.70781249999999)"/><path d="M1440.47 667.98l.15 1.82.42 1.76.7 1.67.94 1.54 1.17 1.38 1.38 1.17 1.54.95 1.67.7 1.76.4 1.82.15H1579v.96h-127.02l-1.93-.16-1.9-.45-1.8-.75-1.68-1.03-1.5-1.28-1.26-1.5-1.02-1.66-.75-1.8-.45-1.9-.15-1.94v-214.8h.94zm61.02-550.6H1452l-1.82.16-1.76.42-1.67.7-1.54.94-1.38 1.17-1.17 1.37-.95 1.55-.7 1.66-.4 1.75-.16 1.84V405.3h-.94V128.9l.15-1.93.45-1.9.75-1.82 1.03-1.67 1.28-1.48 1.5-1.28 1.66-1.02 1.8-.75 1.9-.46 1.94-.16h49.5z" stroke="#333" stroke-width=".05" fill="#333"/><path d="M1579.5 680.48h-.5v-.96h.5z" fill="#333"/><path stroke="#333" stroke-width=".05" fill="#333"/><path d="M1516.26 116.92l-14.27 4.63v-9.27z" fill="#333"/><path d="M1517.8 116.92l-16.28 5.3v-10.6zm-15.33 3.98l12.25-3.98-12.25-3.98z" stroke="#333" stroke-width=".05" fill="#333"/><use xlink:href="#v" transform="matrix(1,0,0,1,1364.07568359375,405.3121025143118) translate(6.0650585937499955 17.4375)"/><use xlink:href="#w" transform="matrix(1,0,0,1,1364.07568359375,405.3121025143118) translate(107.65783203125 17.4375)"/><use xlink:href="#x" transform="matrix(1,0,0,1,1364.07568359375,405.3121025143118) translate(0.0049999999999954525 43.572656249999994)"/><use xlink:href="#y" transform="matrix(1,0,0,1,1364.07568359375,405.3121025143118) translate(67.4786328125 43.572656249999994)"/><use xlink:href="#z" transform="matrix(1,0,0,1,1364.07568359375,405.3121025143118) translate(104.3048046875 43.572656249999994)"/><path d="M1596 640c-8.84 0-16 7.16-16 16v48c0 8.84 7.16 16 16 16h148c8.84 0 16-7.16 16-16v-48c0-8.84-7.16-16-16-16z" stroke="#333" fill="#e08fff"/><use xlink:href="#A" transform="matrix(1,0,0,1,1588,648) translate(16.70019531250001 41.11790364583334)"/><use xlink:href="#B" transform="matrix(1,0,0,1,1588,648) translate(94.74511718750001 41.11790364583334)"/><path d="M1570.32-399.52h-18.3l-1.82.14-1.76.42-1.67.7-1.54.94-1.38 1.17-1.17 1.38-.95 1.54-.7 1.67-.4 1.76-.16 1.82V94.3h-.94v-482.32l.15-1.93.45-1.9.75-1.8 1.03-1.68 1.28-1.5 1.5-1.26 1.66-1.02 1.8-.75 1.9-.45 1.94-.16h18.34zm132.8 0h-17.75v-.96h17.75z" stroke="#333" stroke-width=".05" fill="#333"/><path d="M1540.47 95.27l-.47-.47-.47.47v-1h.94z" fill="#333"/><path stroke="#333" stroke-width=".05" fill="#333"/><path d="M1717.88-400l-14.26 4.63v-9.26z" fill="#333"/><path d="M1719.42-400l-16.28 5.3v-10.6zm-15.33 3.98l12.25-3.98-12.26-3.98z" stroke="#333" stroke-width=".05" fill="#333"/><g><use xlink:href="#d" transform="matrix(1,0,0,1,1570.3199087760845,-437.0248046875) translate(29.127558593750003 17.4375)"/><use xlink:href="#C" transform="matrix(1,0,0,1,1570.3199087760845,-437.0248046875) translate(0.005000000000002558 43.572656249999994)"/><use xlink:href="#D" transform="matrix(1,0,0,1,1570.3199087760845,-437.0248046875) translate(25.110957031250003 69.70781249999999)"/></g><path d="M832.65 117.4H781v-.96h51.65zm190.47 0h-35.77v-.96h35.76z" stroke="#333" stroke-width=".05" fill="#333"/><path d="M781 117.4h-.56l.06-.46-.02-.5h.53z" fill="#333"/><path stroke="#333" stroke-width=".05" fill="#333"/><path d="M1037.88 116.92l-14.27 4.63v-9.27z" fill="#333"/><path d="M1039.42 116.92l-16.28 5.3v-10.6zm-15.33 3.98l12.24-3.98-12.25-3.98z" stroke="#333" stroke-width=".05" fill="#333"/><g><use xlink:href="#E" transform="matrix(1,0,0,1,832.6476168644557,92.96011124756406) translate(0.0049999999999954525 17.4375)"/><use xlink:href="#F" transform="matrix(1,0,0,1,832.6476168644557,92.96011124756406) translate(38.254999999999995 17.4375)"/><use xlink:href="#G" transform="matrix(1,0,0,1,832.6476168644557,92.96011124756406) translate(71.6446484375 17.4375)"/><use xlink:href="#H" transform="matrix(1,0,0,1,832.6476168644557,92.96011124756406) translate(26.328242187499995 43.572656249999994)"/><use xlink:href="#I" transform="matrix(1,0,0,1,832.6476168644557,92.96011124756406) translate(55.094843749999995 43.572656249999994)"/><use xlink:href="#u" transform="matrix(1,0,0,1,832.6476168644557,92.96011124756406) translate(90.549921875 43.572656249999994)"/></g><path d="M1268.74 117.4H1201v-.96h67.74zm232.75 0h-127.8v-.96h127.8z" stroke="#333" stroke-width=".05" fill="#333"/><path d="M1201 117.4h-.5v-.96h.5z" fill="#333"/><path stroke="#333" stroke-width=".05" fill="#333"/><path d="M1516.26 116.92l-14.27 4.63v-9.27z" fill="#333"/><path d="M1517.8 116.92l-16.28 5.3v-10.6zm-15.33 3.98l12.25-3.98-12.25-3.98z" stroke="#333" stroke-width=".05" fill="#333"/><g><use xlink:href="#J" transform="matrix(1,0,0,1,1268.7387609042812,79.8925331225636) translate(0.005000000000002558 17.4375)"/><use xlink:href="#w" transform="matrix(1,0,0,1,1268.7387609042812,79.8925331225636) translate(66.819453125 17.4375)"/><use xlink:href="#x" transform="matrix(1,0,0,1,1268.7387609042812,79.8925331225636) translate(2.8614453125000026 43.572656249999994)"/><use xlink:href="#K" transform="matrix(1,0,0,1,1268.7387609042812,79.8925331225636) translate(70.335078125 43.572656249999994)"/><use xlink:href="#z" transform="matrix(1,0,0,1,1268.7387609042812,79.8925331225636) translate(28.705683593750003 69.70781249999999)"/></g><defs><path fill="#333" d="M783 20c-382 0-661-292-661-764 0-473 279-766 661-766 302 0 548 182 601 489h-190c-42-204-217-313-411-313-268 0-476 208-476 590 0 381 209 588 476 588 195 0 369-110 411-313h190c-52 303-296 489-601 489" id="L"/><path fill="#333" d="M180 0v-1490h510c348 0 508 194 508 460 0 198-88 351-276 417L1256 0h-220L726-579c-117 2-238 0-356 1V0H180zm190-747h312c235 0 327-108 327-283 0-177-92-293-329-293H370v576" id="M"/><path fill="#333" d="M180 0v-1490h908v168H370v486h669v168H370v500h727V0H180" id="N"/><path fill="#333" d="M52 0l541-1490h220L1361 0h-200l-149-416H398L254 0H52zm404-582h497c-103-290-145-390-251-756-108 377-145 460-246 756" id="O"/><path fill="#333" d="M98-1322v-168h1126v168H757V0H567v-1322H98" id="P"/><path fill="#333" d="M645 0H180v-1490h484c435 0 692 280 692 742 0 466-257 748-711 748zM370-168h263c363 0 539-218 539-580 0-358-176-574-521-574H370v1154" id="Q"/><g id="a"><use transform="matrix(0.010091145833333334,0,0,0.010091145833333334,0,0)" xlink:href="#L"/><use transform="matrix(0.010091145833333334,0,0,0.010091145833333334,15.096354166666668,0)" xlink:href="#M"/><use transform="matrix(0.010091145833333334,0,0,0.010091145833333334,28.396484375,0)" xlink:href="#N"/><use transform="matrix(0.010091145833333334,0,0,0.010091145833333334,40.818684895833336,0)" xlink:href="#O"/><use transform="matrix(0.010091145833333334,0,0,0.010091145833333334,53.321614583333336,0)" xlink:href="#P"/><use transform="matrix(0.010091145833333334,0,0,0.010091145833333334,66.662109375,0)" xlink:href="#N"/><use transform="matrix(0.010091145833333334,0,0,0.010091145833333334,79.08430989583333,0)" xlink:href="#Q"/></g><path fill="#333" d="M657 26c-323 0-524-166-541-416h195c15 169 171 246 346 246 202 0 356-106 356-265 5-203-294-238-475-293-239-73-380-191-380-389 0-252 224-419 512-419 294 0 499 171 508 396H992c-17-145-151-228-328-228-193 0-321 102-321 242 0 156 175 211 284 241l149 41c160 44 422 134 422 412 0 244-197 432-541 432" id="R"/><path fill="#333" d="M763 24c-353 0-583-224-583-531v-983h190v968c0 214 149 370 393 370 243 0 391-156 391-370v-968h190v983c0 307-230 531-581 531" id="S"/><path fill="#333" d="M180 0v-1490h901v168H370v510h643v168H370V0H180" id="T"/><path fill="#333" d="M370-1490V0H180v-1490h190" id="U"/><path fill="#333" d="M180 0v-1490h224l606 953c40 63 108 177 176 312-27-437-7-821-13-1265h190V0h-226C860-448 622-778 356-1262c27 476 11 792 15 1262H180" id="V"/><g id="b"><use transform="matrix(0.010091145833333334,0,0,0.010091145833333334,0,0)" xlink:href="#R"/><use transform="matrix(0.010091145833333334,0,0,0.010091145833333334,13.259765625,0)" xlink:href="#S"/><use transform="matrix(0.010091145833333334,0,0,0.010091145833333334,28.638671875,0)" xlink:href="#T"/><use transform="matrix(0.010091145833333334,0,0,0.010091145833333334,40.8388671875,0)" xlink:href="#T"/><use transform="matrix(0.010091145833333334,0,0,0.010091145833333334,53.0390625,0)" xlink:href="#U"/><use transform="matrix(0.010091145833333334,0,0,0.010091145833333334,58.589192708333336,0)" xlink:href="#L"/><use transform="matrix(0.010091145833333334,0,0,0.010091145833333334,73.685546875,0)" xlink:href="#U"/><use transform="matrix(0.010091145833333334,0,0,0.010091145833333334,79.23567708333333,0)" xlink:href="#N"/><use transform="matrix(0.010091145833333334,0,0,0.010091145833333334,91.65787760416666,0)" xlink:href="#V"/><use transform="matrix(0.010091145833333334,0,0,0.010091145833333334,107.22851562499999,0)" xlink:href="#P"/></g><path fill="#333" d="M180 0v-1490h270l367 940c28 72 75 218 110 339 35-117 81-264 110-339l362-940h271V0h-187c2-448-5-837 7-1287-157 497-311 829-483 1287H842C666-458 514-784 354-1284c12 438 5 843 7 1284H180" id="W"/><g id="c"><use transform="matrix(0.010091145833333334,0,0,0.010091145833333334,0,0)" xlink:href="#W"/><use transform="matrix(0.010091145833333334,0,0,0.010091145833333334,18.668619791666668,0)" xlink:href="#N"/><use transform="matrix(0.010091145833333334,0,0,0.010091145833333334,31.090820312500004,0)" xlink:href="#Q"/><use transform="matrix(0.010091145833333334,0,0,0.010091145833333334,46.00553385416667,0)" xlink:href="#U"/><use transform="matrix(0.010091145833333334,0,0,0.010091145833333334,51.5556640625,0)" xlink:href="#S"/><use transform="matrix(0.010091145833333334,0,0,0.010091145833333334,66.9345703125,0)" xlink:href="#W"/></g><path fill="#666" d="M538 24C308 24 148-78 108-271l171-41c32 123 123 178 257 178 156 0 256-77 256-169 0-77-54-128-164-154l-186-44c-203-48-300-148-300-305 0-192 176-326 414-326 230 0 351 112 402 269l-163 42c-31-80-94-158-238-158-133 0-233 69-233 162 0 83 57 129 188 160l169 40c203 48 298 149 298 302 0 196-179 339-441 339" id="X"/><path fill="#666" d="M598-1118v154H368v674c0 100 37 144 132 144 23 0 62-6 92-12L629-6c-37 13-88 20-134 20-193 0-307-107-307-290v-688H20v-154h168v-266h180v266h230" id="Y"/><path fill="#666" d="M471 26C259 26 90-98 90-318c0-256 228-303 435-329 202-27 287-16 287-108 0-139-79-219-234-219-161 0-248 86-283 164l-173-57c86-203 278-265 451-265 150 0 419 46 419 395V0H815v-152h-12C765-73 660 26 471 26zm31-159c199 0 310-134 310-271v-155c-30 35-226 55-295 64-131 17-246 59-246 186 0 116 97 176 231 176" id="Z"/><path fill="#666" d="M537 14c-226 0-379-139-379-422v-710h180v695c0 172 97 275 253 275 160 0 281-109 281-300v-670h181V0H879v-209C806-46 684 14 537 14" id="aa"/><path fill="#666" d="M295 13c-75 0-135-60-135-135s60-135 135-135 135 60 135 135S370 13 295 13zm0-809c-75 0-135-60-135-135s60-135 135-135 135 60 135 135-60 135-135 135" id="ab"/><g id="d"><use transform="matrix(0.0087890625,0,0,0.0087890625,0,0)" xlink:href="#X"/><use transform="matrix(0.0087890625,0,0,0.0087890625,9.5009765625,0)" xlink:href="#Y"/><use transform="matrix(0.0087890625,0,0,0.0087890625,15.4775390625,0)" xlink:href="#Z"/><use transform="matrix(0.0087890625,0,0,0.0087890625,25.5849609375,0)" xlink:href="#Y"/><use transform="matrix(0.0087890625,0,0,0.0087890625,31.4736328125,0)" xlink:href="#aa"/><use transform="matrix(0.0087890625,0,0,0.0087890625,42.1171875,0)" xlink:href="#X"/><use transform="matrix(0.0087890625,0,0,0.0087890625,51.6181640625,0)" xlink:href="#ab"/></g><path fill="#666" d="M232-923l-22-567h194l-22 567H232zm340 0l-22-567h194l-22 567H572" id="ac"/><path fill="#666" d="M678-1118v154H420V0H240v-964H20v-154h220v-149c0-194 155-293 318-293 85 0 141 18 168 30l-50 154c-19-6-47-17-97-17-111 0-159 58-159 166v109h258" id="ad"/><path fill="#666" d="M158 0v-1118h180V0H158zm91-1301c-68 0-125-53-125-119s57-119 125-119c69 0 126 53 126 119s-57 119-126 119" id="ae"/><path fill="#666" d="M613 24c-304 0-509-231-509-576 0-350 205-580 509-580 216 0 392 114 453 309l-173 49c-33-115-133-197-280-197-223 0-326 196-326 419 0 220 103 415 326 415 150 0 252-85 285-206l172 49C1010-95 832 24 613 24" id="af"/><path fill="#666" d="M628 24c-324 0-524-230-524-574 0-343 198-582 503-582 237 0 487 146 487 559v75H286c9 234 145 362 343 362 132 0 231-58 273-172l174 48C1024-91 857 24 628 24zM287-650h624c-17-190-120-322-304-322-192 0-309 151-320 322" id="ag"/><path fill="#666" d="M338-670V0H158v-1118h173l1 207c72-158 192-221 342-221 226 0 378 139 378 422V0H872v-695c0-172-96-275-252-275-161 0-282 109-282 300" id="ah"/><g id="e"><use transform="matrix(0.0087890625,0,0,0.0087890625,0,0)" xlink:href="#ac"/><use transform="matrix(0.0087890625,0,0,0.0087890625,8.384765625,0)" xlink:href="#X"/><use transform="matrix(0.0087890625,0,0,0.0087890625,17.8857421875,0)" xlink:href="#aa"/><use transform="matrix(0.0087890625,0,0,0.0087890625,28.529296875,0)" xlink:href="#ad"/><use transform="matrix(0.0087890625,0,0,0.0087890625,34.48828125,0)" xlink:href="#ad"/><use transform="matrix(0.0087890625,0,0,0.0087890625,41.150390625,0)" xlink:href="#ae"/><use transform="matrix(0.0087890625,0,0,0.0087890625,45.509765625,0)" xlink:href="#af"/><use transform="matrix(0.0087890625,0,0,0.0087890625,55.79296875,0)" xlink:href="#ae"/><use transform="matrix(0.0087890625,0,0,0.0087890625,60.15234375,0)" xlink:href="#ag"/><use transform="matrix(0.0087890625,0,0,0.0087890625,70.646484375,0)" xlink:href="#ah"/><use transform="matrix(0.0087890625,0,0,0.0087890625,81.28125,0)" xlink:href="#Y"/><use transform="matrix(0.0087890625,0,0,0.0087890625,87.169921875,0)" xlink:href="#ac"/></g><path fill="#666" d="M158 0v-1118h175l1 205c55-151 181-225 313-225 147 0 245 90 285 228 53-141 190-228 352-228 194 0 352 125 352 384V0h-181v-749c0-161-105-225-225-225-151 0-243 103-243 244V0H807v-767c0-124-93-207-219-207-131 0-250 92-250 270V0H158" id="ai"/><path fill="#666" d="M577 24c-279 0-473-224-473-580 0-354 195-576 474-576 218 0 287 134 324 193h14v-551h180V0H922v-173h-20C865-111 790 24 577 24zm27-161c203 0 314-172 314-421 0-247-108-413-314-413-212 0-317 181-317 413 0 235 108 421 317 421" id="aj"/><g id="f"><use transform="matrix(0.0087890625,0,0,0.0087890625,0,0)" xlink:href="#ac"/><use transform="matrix(0.0087890625,0,0,0.0087890625,8.384765625,0)" xlink:href="#ai"/><use transform="matrix(0.0087890625,0,0,0.0087890625,24.15234375,0)" xlink:href="#ag"/><use transform="matrix(0.0087890625,0,0,0.0087890625,34.646484375,0)" xlink:href="#aj"/><use transform="matrix(0.0087890625,0,0,0.0087890625,45.66796875,0)" xlink:href="#ae"/><use transform="matrix(0.0087890625,0,0,0.0087890625,50.02734375,0)" xlink:href="#aa"/><use transform="matrix(0.0087890625,0,0,0.0087890625,60.6708984375,0)" xlink:href="#ai"/><use transform="matrix(0.0087890625,0,0,0.0087890625,76.4384765625,0)" xlink:href="#ac"/></g><path fill="#333" d="M784 20c-382 0-662-292-662-764 0-473 280-766 662-766s660 293 660 766c0 472-278 764-660 764zm0-176c266 0 475-207 475-588 0-383-209-590-475-590-268 0-477 208-477 590 0 380 209 588 477 588" id="ak"/><path fill="#333" d="M180 0v-1490h510c348 0 508 209 508 474 0 266-160 477-507 477H370V0H180zm190-706h312c236 0 327-133 327-310 0-176-91-307-329-307H370v617" id="al"/><path fill="#333" d="M180 0v-1490h190v1322h690V0H180" id="am"/><g id="g"><use transform="matrix(0.010091145833333334,0,0,0.010091145833333334,0,0)" xlink:href="#ak"/><use transform="matrix(0.010091145833333334,0,0,0.010091145833333334,15.802734375000002,0)" xlink:href="#al"/><use transform="matrix(0.010091145833333334,0,0,0.010091145833333334,29.001953125,0)" xlink:href="#P"/><use transform="matrix(0.010091145833333334,0,0,0.010091145833333334,42.34244791666667,0)" xlink:href="#U"/><use transform="matrix(0.010091145833333334,0,0,0.010091145833333334,47.892578125,0)" xlink:href="#W"/><use transform="matrix(0.010091145833333334,0,0,0.010091145833333334,66.56119791666667,0)" xlink:href="#O"/><use transform="matrix(0.010091145833333334,0,0,0.010091145833333334,80.81998697916667,0)" xlink:href="#am"/></g><path fill="#333" d="M784 20c-382 0-662-292-662-764 0-473 280-766 662-766s660 293 660 766c0 282-99 499-260 629l192 255h-198L1049-33C969 2 880 20 784 20zm-62-486h198l156 205c112-98 183-261 183-483 0-383-209-590-475-590-268 0-477 208-477 590 0 380 209 588 477 588 54 0 106-9 154-25" id="an"/><g id="h"><use transform="matrix(0.010091145833333334,0,0,0.010091145833333334,0,0)" xlink:href="#M"/><use transform="matrix(0.010091145833333334,0,0,0.010091145833333334,13.300130208333334,0)" xlink:href="#N"/><use transform="matrix(0.010091145833333334,0,0,0.010091145833333334,25.722330729166668,0)" xlink:href="#an"/><use transform="matrix(0.010091145833333334,0,0,0.010091145833333334,41.52506510416667,0)" xlink:href="#S"/><use transform="matrix(0.010091145833333334,0,0,0.010091145833333334,56.90397135416667,0)" xlink:href="#U"/><use transform="matrix(0.010091145833333334,0,0,0.010091145833333334,62.45410156250001,0)" xlink:href="#M"/><use transform="matrix(0.010091145833333334,0,0,0.010091145833333334,75.75423177083334,0)" xlink:href="#N"/><use transform="matrix(0.010091145833333334,0,0,0.010091145833333334,88.17643229166667,0)" xlink:href="#R"/></g><g id="i"><use transform="matrix(0.010091145833333334,0,0,0.010091145833333334,0,0)" xlink:href="#W"/><use transform="matrix(0.010091145833333334,0,0,0.010091145833333334,18.668619791666668,0)" xlink:href="#O"/><use transform="matrix(0.010091145833333334,0,0,0.010091145833333334,32.92740885416667,0)" xlink:href="#U"/><use transform="matrix(0.010091145833333334,0,0,0.010091145833333334,38.47753906250001,0)" xlink:href="#V"/><use transform="matrix(0.010091145833333334,0,0,0.010091145833333334,54.04817708333334,0)" xlink:href="#P"/><use transform="matrix(0.010091145833333334,0,0,0.010091145833333334,67.38867187500001,0)" xlink:href="#N"/><use transform="matrix(0.010091145833333334,0,0,0.010091145833333334,79.81087239583334,0)" xlink:href="#V"/><use transform="matrix(0.010091145833333334,0,0,0.010091145833333334,95.38151041666667,0)" xlink:href="#O"/><use transform="matrix(0.010091145833333334,0,0,0.010091145833333334,109.64029947916667,0)" xlink:href="#V"/><use transform="matrix(0.010091145833333334,0,0,0.010091145833333334,125.21093750000001,0)" xlink:href="#L"/><use transform="matrix(0.010091145833333334,0,0,0.010091145833333334,140.30729166666666,0)" xlink:href="#N"/></g><path fill="#666" d="M158 0v-1118h174v172h12c41-113 157-188 290-188 26 0 70 2 91 3v181c-11-2-60-10-108-10-161 0-279 109-279 260V0H158" id="ao"/><path fill="#666" d="M1096 418H916v-591h-14C865-111 790 24 577 24c-279 0-473-224-473-580 0-354 195-576 474-576 218 0 287 134 324 193h20v-179h174V418zM604-137c203 0 314-172 314-421 0-247-108-413-314-413-212 0-317 181-317 413 0 235 108 421 317 421" id="ap"/><g id="j"><use transform="matrix(0.0087890625,0,0,0.0087890625,0,0)" xlink:href="#ac"/><use transform="matrix(0.0087890625,0,0,0.0087890625,8.384765625,0)" xlink:href="#ao"/><use transform="matrix(0.0087890625,0,0,0.0087890625,14.8623046875,0)" xlink:href="#ag"/><use transform="matrix(0.0087890625,0,0,0.0087890625,25.3564453125,0)" xlink:href="#ap"/><use transform="matrix(0.0087890625,0,0,0.0087890625,36.3779296875,0)" xlink:href="#aa"/><use transform="matrix(0.0087890625,0,0,0.0087890625,47.021484375,0)" xlink:href="#ae"/><use transform="matrix(0.0087890625,0,0,0.0087890625,51.380859375,0)" xlink:href="#ao"/><use transform="matrix(0.0087890625,0,0,0.0087890625,57.8583984375,0)" xlink:href="#ag"/><use transform="matrix(0.0087890625,0,0,0.0087890625,68.3525390625,0)" xlink:href="#X"/></g><g id="k"><use transform="matrix(0.0087890625,0,0,0.0087890625,0,0)" xlink:href="#ai"/><use transform="matrix(0.0087890625,0,0,0.0087890625,15.767578125,0)" xlink:href="#Z"/><use transform="matrix(0.0087890625,0,0,0.0087890625,25.875,0)" xlink:href="#ae"/><use transform="matrix(0.0087890625,0,0,0.0087890625,30.234375,0)" xlink:href="#ah"/><use transform="matrix(0.0087890625,0,0,0.0087890625,40.869140625,0)" xlink:href="#Y"/><use transform="matrix(0.0087890625,0,0,0.0087890625,46.58203125,0)" xlink:href="#ag"/><use transform="matrix(0.0087890625,0,0,0.0087890625,57.076171875,0)" xlink:href="#ah"/><use transform="matrix(0.0087890625,0,0,0.0087890625,67.7109375,0)" xlink:href="#Z"/><use transform="matrix(0.0087890625,0,0,0.0087890625,77.818359375,0)" xlink:href="#ah"/><use transform="matrix(0.0087890625,0,0,0.0087890625,88.453125,0)" xlink:href="#af"/><use transform="matrix(0.0087890625,0,0,0.0087890625,98.736328125,0)" xlink:href="#ag"/><use transform="matrix(0.0087890625,0,0,0.0087890625,108.966796875,0)" xlink:href="#ac"/></g><path fill="#666" d="M613 24c-304 0-509-231-509-576 0-350 205-580 509-580 305 0 511 230 511 580 0 345-206 576-511 576zm0-161c226 0 329-195 329-415 0-222-103-419-329-419-223 0-326 196-326 419 0 220 103 415 326 415" id="aq"/><path fill="#666" d="M158 418v-1536h174v179h20c37-59 106-193 324-193 279 0 474 222 474 576 0 356-194 580-473 580-213 0-288-135-325-197h-14v591H158zm492-555c209 0 317-186 317-421 0-232-105-413-317-413-206 0-314 166-314 413 0 249 111 421 314 421" id="ar"/><path fill="#666" d="M338-1490V0H158v-1490h180" id="as"/><g id="l"><use transform="matrix(0.0087890625,0,0,0.0087890625,0,0)" xlink:href="#ac"/><use transform="matrix(0.0087890625,0,0,0.0087890625,8.12109375,0)" xlink:href="#aq"/><use transform="matrix(0.0087890625,0,0,0.0087890625,18.9140625,0)" xlink:href="#ar"/><use transform="matrix(0.0087890625,0,0,0.0087890625,29.935546875,0)" xlink:href="#Y"/><use transform="matrix(0.0087890625,0,0,0.0087890625,35.82421875,0)" xlink:href="#ae"/><use transform="matrix(0.0087890625,0,0,0.0087890625,40.18359375,0)" xlink:href="#ai"/><use transform="matrix(0.0087890625,0,0,0.0087890625,55.951171875,0)" xlink:href="#Z"/><use transform="matrix(0.0087890625,0,0,0.0087890625,66.05859375,0)" xlink:href="#as"/><use transform="matrix(0.0087890625,0,0,0.0087890625,70.41796875,0)" xlink:href="#ac"/></g><path d="M180 0v-1490h510c348 0 508 209 508 474 0 266-160 477-507 477H370V0H180zm190-706h312c236 0 327-133 327-310 0-176-91-307-329-307H370v617" id="at"/><path d="M180 0v-1490h908v168H370v486h669v168H370v500h727V0H180" id="au"/><path d="M180 0v-1490h510c348 0 508 194 508 460 0 198-88 351-276 417L1256 0h-220L726-579c-117 2-238 0-356 1V0H180zm190-747h312c235 0 327-108 327-283 0-177-92-293-329-293H370v576" id="av"/><path d="M180 0v-1490h270l367 940c28 72 75 218 110 339 35-117 81-264 110-339l362-940h271V0h-187c2-448-5-837 7-1287-157 497-311 829-483 1287H842C666-458 514-784 354-1284c12 438 5 843 7 1284H180" id="aw"/><path d="M52 0l541-1490h220L1361 0h-200l-149-416H398L254 0H52zm404-582h497c-103-290-145-390-251-756-108 377-145 460-246 756" id="ax"/><path d="M180 0v-1490h224l606 953c40 63 108 177 176 312-27-437-7-821-13-1265h190V0h-226C860-448 622-778 356-1262c27 476 11 792 15 1262H180" id="ay"/><path d="M98-1322v-168h1126v168H757V0H567v-1322H98" id="az"/><path d="M180 0v-1490h190v1322h690V0H180" id="aA"/><path d="M600 0v-610L52-1490h220l295 481c50 82 90 150 130 243 40-96 80-164 128-243l294-481h219L790-610V0H600" id="aB"/><g id="m"><use transform="matrix(0.010416666666666668,0,0,0.010416666666666668,0,0)" xlink:href="#at"/><use transform="matrix(0.010416666666666668,0,0,0.010416666666666668,13.625000000000002,0)" xlink:href="#au"/><use transform="matrix(0.010416666666666668,0,0,0.010416666666666668,26.447916666666668,0)" xlink:href="#av"/><use transform="matrix(0.010416666666666668,0,0,0.010416666666666668,40.17708333333334,0)" xlink:href="#aw"/><use transform="matrix(0.010416666666666668,0,0,0.010416666666666668,59.447916666666686,0)" xlink:href="#ax"/><use transform="matrix(0.010416666666666668,0,0,0.010416666666666668,74.16666666666669,0)" xlink:href="#ay"/><use transform="matrix(0.010416666666666668,0,0,0.010416666666666668,90.23958333333336,0)" xlink:href="#au"/><use transform="matrix(0.010416666666666668,0,0,0.010416666666666668,103.06250000000003,0)" xlink:href="#ay"/><use transform="matrix(0.010416666666666668,0,0,0.010416666666666668,119.1354166666667,0)" xlink:href="#az"/><use transform="matrix(0.010416666666666668,0,0,0.010416666666666668,132.90625000000003,0)" xlink:href="#aA"/><use transform="matrix(0.010416666666666668,0,0,0.010416666666666668,144.25000000000003,0)" xlink:href="#aB"/></g><path d="M783 20c-382 0-661-292-661-764 0-473 279-766 661-766 302 0 548 182 601 489h-190c-42-204-217-313-411-313-268 0-476 208-476 590 0 381 209 588 476 588 195 0 369-110 411-313h190c-52 303-296 489-601 489" id="aC"/><path d="M784 20c-382 0-662-292-662-764 0-473 280-766 662-766s660 293 660 766c0 472-278 764-660 764zm0-176c266 0 475-207 475-588 0-383-209-590-475-590-268 0-477 208-477 590 0 380 209 588 477 588" id="aD"/><path d="M657 26c-323 0-524-166-541-416h195c15 169 171 246 346 246 202 0 356-106 356-265 5-203-294-238-475-293-239-73-380-191-380-389 0-252 224-419 512-419 294 0 499 171 508 396H992c-17-145-151-228-328-228-193 0-321 102-321 242 0 156 175 211 284 241l149 41c160 44 422 134 422 412 0 244-197 432-541 432" id="aE"/><path d="M645 0H180v-1490h484c435 0 692 280 692 742 0 466-257 748-711 748zM370-168h263c363 0 539-218 539-580 0-358-176-574-521-574H370v1154" id="aF"/><g id="n"><use transform="matrix(0.010416666666666668,0,0,0.010416666666666668,0,0)" xlink:href="#aC"/><use transform="matrix(0.010416666666666668,0,0,0.010416666666666668,15.583333333333336,0)" xlink:href="#aA"/><use transform="matrix(0.010416666666666668,0,0,0.010416666666666668,27.04166666666667,0)" xlink:href="#aD"/><use transform="matrix(0.010416666666666668,0,0,0.010416666666666668,43.35416666666667,0)" xlink:href="#aE"/><use transform="matrix(0.010416666666666668,0,0,0.010416666666666668,57.04166666666667,0)" xlink:href="#au"/><use transform="matrix(0.010416666666666668,0,0,0.010416666666666668,69.86458333333334,0)" xlink:href="#aF"/></g><path fill="#666" d="M409 0L70-1118h191c89 329 165 560 243 925 75-353 154-601 240-925h192c85 325 161 564 235 922 77-354 157-598 244-922h191L1267 0h-179c-86-307-176-590-250-913C763-588 675-308 588 0H409" id="aG"/><g id="o"><use transform="matrix(0.0087890625,0,0,0.0087890625,0,0)" xlink:href="#ah"/><use transform="matrix(0.0087890625,0,0,0.0087890625,10.634765625,0)" xlink:href="#ag"/><use transform="matrix(0.0087890625,0,0,0.0087890625,20.8037109375,0)" xlink:href="#aG"/></g><g id="p"><use transform="matrix(0.0087890625,0,0,0.0087890625,0,0)" xlink:href="#Y"/><use transform="matrix(0.0087890625,0,0,0.0087890625,5.888671875,0)" xlink:href="#ao"/><use transform="matrix(0.0087890625,0,0,0.0087890625,12.9462890625,0)" xlink:href="#ae"/><use transform="matrix(0.0087890625,0,0,0.0087890625,17.3056640625,0)" xlink:href="#ar"/></g><path fill="#666" d="M677 24c-213 0-288-135-325-197h-20V0H158v-1490h180v551h14c37-59 106-193 324-193 279 0 474 222 474 576 0 356-194 580-473 580zm-27-161c209 0 317-186 317-421 0-232-105-413-317-413-206 0-314 166-314 413 0 249 111 421 314 421" id="aH"/><path fill="#666" d="M338-670V0H158v-1490h180v566c73-149 190-208 336-208 226 0 379 139 379 422V0H872v-695c0-172-96-275-252-275-161 0-282 109-282 300" id="aI"/><g id="q"><use transform="matrix(0.0087890625,0,0,0.0087890625,0,0)" xlink:href="#ar"/><use transform="matrix(0.0087890625,0,0,0.0087890625,11.021484375,0)" xlink:href="#aa"/><use transform="matrix(0.0087890625,0,0,0.0087890625,21.6650390625,0)" xlink:href="#aH"/><use transform="matrix(0.0087890625,0,0,0.0087890625,32.6865234375,0)" xlink:href="#as"/><use transform="matrix(0.0087890625,0,0,0.0087890625,37.0458984375,0)" xlink:href="#ae"/><use transform="matrix(0.0087890625,0,0,0.0087890625,41.4052734375,0)" xlink:href="#X"/><use transform="matrix(0.0087890625,0,0,0.0087890625,50.90625,0)" xlink:href="#aI"/><use transform="matrix(0.0087890625,0,0,0.0087890625,61.5498046875,0)" xlink:href="#ag"/><use transform="matrix(0.0087890625,0,0,0.0087890625,72.0439453125,0)" xlink:href="#aj"/></g><g id="r"><use transform="matrix(0.0087890625,0,0,0.0087890625,0,0)" xlink:href="#ad"/><use transform="matrix(0.0087890625,0,0,0.0087890625,6.134765625,0)" xlink:href="#aq"/><use transform="matrix(0.0087890625,0,0,0.0087890625,16.927734375,0)" xlink:href="#ao"/></g><g id="s"><use transform="matrix(0.0087890625,0,0,0.0087890625,0,0)" xlink:href="#Y"/><use transform="matrix(0.0087890625,0,0,0.0087890625,5.888671875,0)" xlink:href="#aI"/><use transform="matrix(0.0087890625,0,0,0.0087890625,16.5322265625,0)" xlink:href="#ag"/></g><g id="t"><use transform="matrix(0.0087890625,0,0,0.0087890625,0,0)" xlink:href="#X"/><use transform="matrix(0.0087890625,0,0,0.0087890625,9.5009765625,0)" xlink:href="#Z"/><use transform="matrix(0.0087890625,0,0,0.0087890625,19.6083984375,0)" xlink:href="#ai"/><use transform="matrix(0.0087890625,0,0,0.0087890625,35.3759765625,0)" xlink:href="#ag"/></g><g id="u"><use transform="matrix(0.0087890625,0,0,0.0087890625,0,0)" xlink:href="#ar"/><use transform="matrix(0.0087890625,0,0,0.0087890625,11.197265625,0)" xlink:href="#Z"/><use transform="matrix(0.0087890625,0,0,0.0087890625,21.3046875,0)" xlink:href="#Y"/><use transform="matrix(0.0087890625,0,0,0.0087890625,27.193359375,0)" xlink:href="#aI"/></g><path fill="#666" d="M180 0v-1490h510c348 0 508 194 508 460 0 198-88 351-276 417L1256 0h-220L726-579c-117 2-238 0-356 1V0H180zm190-747h312c235 0 327-108 327-283 0-177-92-293-329-293H370v576" id="aJ"/><g id="v"><use transform="matrix(0.0087890625,0,0,0.0087890625,0,0)" xlink:href="#aJ"/><use transform="matrix(0.0087890625,0,0,0.0087890625,11.3203125,0)" xlink:href="#ag"/><use transform="matrix(0.0087890625,0,0,0.0087890625,21.814453125,0)" xlink:href="#af"/><use transform="matrix(0.0087890625,0,0,0.0087890625,32.09765625,0)" xlink:href="#aq"/><use transform="matrix(0.0087890625,0,0,0.0087890625,42.890625,0)" xlink:href="#ai"/><use transform="matrix(0.0087890625,0,0,0.0087890625,58.658203125,0)" xlink:href="#ar"/><use transform="matrix(0.0087890625,0,0,0.0087890625,69.6796875,0)" xlink:href="#aa"/><use transform="matrix(0.0087890625,0,0,0.0087890625,80.3232421875,0)" xlink:href="#Y"/><use transform="matrix(0.0087890625,0,0,0.0087890625,86.0361328125,0)" xlink:href="#ag"/></g><path fill="#666" d="M180 0v-1490h510c348 0 508 209 508 474 0 266-160 477-507 477H370V0H180zm190-706h312c236 0 327-133 327-310 0-176-91-307-329-307H370v617" id="aK"/><g id="w"><use transform="matrix(0.0087890625,0,0,0.0087890625,0,0)" xlink:href="#aK"/><use transform="matrix(0.0087890625,0,0,0.0087890625,11.49609375,0)" xlink:href="#Z"/><use transform="matrix(0.0087890625,0,0,0.0087890625,21.603515625,0)" xlink:href="#Y"/><use transform="matrix(0.0087890625,0,0,0.0087890625,27.4921875,0)" xlink:href="#aI"/></g><path fill="#666" d="M232-923l-22-567h194l-22 567H232" id="aL"/><g id="x"><use transform="matrix(0.0087890625,0,0,0.0087890625,0,0)" xlink:href="#aL"/><use transform="matrix(0.0087890625,0,0,0.0087890625,5.396484375,0)" xlink:href="#X"/><use transform="matrix(0.0087890625,0,0,0.0087890625,14.8974609375,0)" xlink:href="#Y"/><use transform="matrix(0.0087890625,0,0,0.0087890625,20.8740234375,0)" xlink:href="#Z"/><use transform="matrix(0.0087890625,0,0,0.0087890625,30.9814453125,0)" xlink:href="#Y"/><use transform="matrix(0.0087890625,0,0,0.0087890625,36.8701171875,0)" xlink:href="#aa"/><use transform="matrix(0.0087890625,0,0,0.0087890625,47.513671875,0)" xlink:href="#X"/><use transform="matrix(0.0087890625,0,0,0.0087890625,57.0146484375,0)" xlink:href="#aL"/></g><g id="y"><use transform="matrix(0.0087890625,0,0,0.0087890625,0,0)" xlink:href="#Z"/><use transform="matrix(0.0087890625,0,0,0.0087890625,10.107421875,0)" xlink:href="#ah"/><use transform="matrix(0.0087890625,0,0,0.0087890625,20.7421875,0)" xlink:href="#aj"/></g><g id="z"><use transform="matrix(0.0087890625,0,0,0.0087890625,0,0)" xlink:href="#X"/><use transform="matrix(0.0087890625,0,0,0.0087890625,9.5009765625,0)" xlink:href="#af"/><use transform="matrix(0.0087890625,0,0,0.0087890625,19.7841796875,0)" xlink:href="#aq"/><use transform="matrix(0.0087890625,0,0,0.0087890625,30.5771484375,0)" xlink:href="#ao"/><use transform="matrix(0.0087890625,0,0,0.0087890625,37.0546875,0)" xlink:href="#ag"/></g><path fill="#333" d="M789 20c-398 0-667-293-667-764 0-473 273-766 655-766 315 0 558 198 612 487h-196c-61-191-204-311-415-311-262 0-471 207-471 590 0 380 208 588 482 588 249 0 420-165 425-427H828v-166h572v163c0 370-256 606-611 606" id="aM"/><g id="A"><use transform="matrix(0.010091145833333334,0,0,0.010091145833333334,0,0)" xlink:href="#W"/><use transform="matrix(0.010091145833333334,0,0,0.010091145833333334,18.668619791666668,0)" xlink:href="#N"/><use transform="matrix(0.010091145833333334,0,0,0.010091145833333334,31.090820312500004,0)" xlink:href="#M"/><use transform="matrix(0.010091145833333334,0,0,0.010091145833333334,44.390950520833336,0)" xlink:href="#aM"/><use transform="matrix(0.010091145833333334,0,0,0.010091145833333334,59.81022135416667,0)" xlink:href="#N"/></g><g id="B"><use transform="matrix(0.010091145833333334,0,0,0.010091145833333334,0,0)" xlink:href="#Q"/><use transform="matrix(0.010091145833333334,0,0,0.010091145833333334,14.208333333333334,0)" xlink:href="#O"/><use transform="matrix(0.010091145833333334,0,0,0.010091145833333334,26.711263020833336,0)" xlink:href="#P"/><use transform="matrix(0.010091145833333334,0,0,0.010091145833333334,38.2958984375,0)" xlink:href="#O"/></g><path fill="#666" d="M140 405l46-156c120 36 205 19 263-150l32-93L54-1118h197c107 313 237 620 324 950 87-331 219-637 326-950h196L606 167c-68 178-176 259-334 259-64 0-113-12-132-21" id="aN"/><g id="C"><use transform="matrix(0.0087890625,0,0,0.0087890625,0,0)" xlink:href="#ac"/><use transform="matrix(0.0087890625,0,0,0.0087890625,8.384765625,0)" xlink:href="#ar"/><use transform="matrix(0.0087890625,0,0,0.0087890625,19.40625,0)" xlink:href="#ag"/><use transform="matrix(0.0087890625,0,0,0.0087890625,29.900390625,0)" xlink:href="#ao"/><use transform="matrix(0.0087890625,0,0,0.0087890625,36.9580078125,0)" xlink:href="#ai"/><use transform="matrix(0.0087890625,0,0,0.0087890625,52.7255859375,0)" xlink:href="#Z"/><use transform="matrix(0.0087890625,0,0,0.0087890625,62.8330078125,0)" xlink:href="#ah"/><use transform="matrix(0.0087890625,0,0,0.0087890625,73.4677734375,0)" xlink:href="#ag"/><use transform="matrix(0.0087890625,0,0,0.0087890625,83.9619140625,0)" xlink:href="#ah"/><use transform="matrix(0.0087890625,0,0,0.0087890625,94.5966796875,0)" xlink:href="#Y"/><use transform="matrix(0.0087890625,0,0,0.0087890625,100.4853515625,0)" xlink:href="#as"/><use transform="matrix(0.0087890625,0,0,0.0087890625,104.9326171875,0)" xlink:href="#aN"/></g><g id="D"><use transform="matrix(0.0087890625,0,0,0.0087890625,0,0)" xlink:href="#af"/><use transform="matrix(0.0087890625,0,0,0.0087890625,10.283203125,0)" xlink:href="#as"/><use transform="matrix(0.0087890625,0,0,0.0087890625,14.642578125,0)" xlink:href="#aq"/><use transform="matrix(0.0087890625,0,0,0.0087890625,25.435546875,0)" xlink:href="#X"/><use transform="matrix(0.0087890625,0,0,0.0087890625,34.9365234375,0)" xlink:href="#ag"/><use transform="matrix(0.0087890625,0,0,0.0087890625,45.4306640625,0)" xlink:href="#aj"/><use transform="matrix(0.0087890625,0,0,0.0087890625,56.4521484375,0)" xlink:href="#ac"/></g><g id="E"><use transform="matrix(0.0087890625,0,0,0.0087890625,0,0)" xlink:href="#ad"/><use transform="matrix(0.0087890625,0,0,0.0087890625,6.662109375,0)" xlink:href="#ae"/><use transform="matrix(0.0087890625,0,0,0.0087890625,11.021484375,0)" xlink:href="#ao"/><use transform="matrix(0.0087890625,0,0,0.0087890625,17.7978515625,0)" xlink:href="#X"/><use transform="matrix(0.0087890625,0,0,0.0087890625,27.298828125,0)" xlink:href="#Y"/></g><g id="F"><use transform="matrix(0.0087890625,0,0,0.0087890625,0,0)" xlink:href="#Y"/><use transform="matrix(0.0087890625,0,0,0.0087890625,5.888671875,0)" xlink:href="#ao"/><use transform="matrix(0.0087890625,0,0,0.0087890625,12.9462890625,0)" xlink:href="#ae"/><use transform="matrix(0.0087890625,0,0,0.0087890625,17.3056640625,0)" xlink:href="#ar"/></g><g id="G"><use transform="matrix(0.0087890625,0,0,0.0087890625,0,0)" xlink:href="#ar"/><use transform="matrix(0.0087890625,0,0,0.0087890625,11.021484375,0)" xlink:href="#aa"/><use transform="matrix(0.0087890625,0,0,0.0087890625,21.6650390625,0)" xlink:href="#aH"/><use transform="matrix(0.0087890625,0,0,0.0087890625,32.6865234375,0)" xlink:href="#as"/><use transform="matrix(0.0087890625,0,0,0.0087890625,37.0458984375,0)" xlink:href="#ae"/><use transform="matrix(0.0087890625,0,0,0.0087890625,41.4052734375,0)" xlink:href="#X"/><use transform="matrix(0.0087890625,0,0,0.0087890625,50.90625,0)" xlink:href="#aI"/><use transform="matrix(0.0087890625,0,0,0.0087890625,61.5498046875,0)" xlink:href="#ag"/><use transform="matrix(0.0087890625,0,0,0.0087890625,72.0439453125,0)" xlink:href="#aj"/></g><g id="H"><use transform="matrix(0.0087890625,0,0,0.0087890625,0,0)" xlink:href="#ad"/><use transform="matrix(0.0087890625,0,0,0.0087890625,6.134765625,0)" xlink:href="#aq"/><use transform="matrix(0.0087890625,0,0,0.0087890625,16.927734375,0)" xlink:href="#ao"/></g><g id="I"><use transform="matrix(0.0087890625,0,0,0.0087890625,0,0)" xlink:href="#Y"/><use transform="matrix(0.0087890625,0,0,0.0087890625,5.888671875,0)" xlink:href="#aI"/><use transform="matrix(0.0087890625,0,0,0.0087890625,16.5322265625,0)" xlink:href="#ae"/><use transform="matrix(0.0087890625,0,0,0.0087890625,20.8916015625,0)" xlink:href="#X"/></g><path fill="#666" d="M763 24c-353 0-583-224-583-531v-983h190v968c0 214 149 370 393 370 243 0 391-156 391-370v-968h190v983c0 307-230 531-581 531" id="aO"/><g id="J"><use transform="matrix(0.0087890625,0,0,0.0087890625,0,0)" xlink:href="#aO"/><use transform="matrix(0.0087890625,0,0,0.0087890625,13.39453125,0)" xlink:href="#ar"/><use transform="matrix(0.0087890625,0,0,0.0087890625,24.416015625,0)" xlink:href="#aj"/><use transform="matrix(0.0087890625,0,0,0.0087890625,35.4375,0)" xlink:href="#Z"/><use transform="matrix(0.0087890625,0,0,0.0087890625,45.544921875,0)" xlink:href="#Y"/><use transform="matrix(0.0087890625,0,0,0.0087890625,51.2578125,0)" xlink:href="#ag"/></g><g id="K"><use transform="matrix(0.0087890625,0,0,0.0087890625,0,0)" xlink:href="#Z"/><use transform="matrix(0.0087890625,0,0,0.0087890625,10.107421875,0)" xlink:href="#ah"/><use transform="matrix(0.0087890625,0,0,0.0087890625,20.7421875,0)" xlink:href="#aj"/></g></defs></g></svg>